<?xml version="1.0" encoding="utf-8"?>
<!-- Generator: Adobe Illustrator 16.0.0, SVG Export Plug-In . SVG Version: 6.00 Build 0)  -->
<!DOCTYPE svg PUBLIC "-//W3C//DTD SVG 1.1//EN" "http://www.w3.org/Graphics/SVG/1.1/DTD/svg11.dtd">
<svg version="1.1" id="Calque_2" xmlns="http://www.w3.org/2000/svg" xmlns:xlink="http://www.w3.org/1999/xlink" x="0px" y="0px"
	 width="399px" height="150px" viewBox="0 0 399 150" enable-background="new 0 0 399 150" xml:space="preserve">
<g>
	<g>
		<path fill="none" stroke="#06ADF4" stroke-width="6" stroke-linecap="round" stroke-linejoin="round" d="M46.473,39.065
			c3.816-0.576,8.353-1.009,13.321-1.009c9.001,0,15.41,2.089,19.658,6.049c4.32,3.96,6.841,9.577,6.841,17.426
			c0,7.921-2.448,14.401-6.985,18.865c-4.536,4.536-12.025,6.984-21.458,6.984c-4.464,0-8.209-0.216-11.377-0.575V39.065z
			 M52.737,81.98c1.584,0.288,3.889,0.36,6.337,0.36c13.393,0,20.666-7.488,20.666-20.594c0.072-11.449-6.409-18.722-19.658-18.722
			c-3.24,0-5.688,0.288-7.345,0.648V81.98z"/>
		<path fill="none" stroke="#06ADF4" stroke-width="6" stroke-linecap="round" stroke-linejoin="round" d="M124.16,65.131v4.681
			h-17.786v-4.681H124.16z"/>
		<path fill="none" stroke="#06ADF4" stroke-width="6" stroke-linecap="round" stroke-linejoin="round" d="M153.318,38.417v48.532
			h-6.264V38.417H153.318z"/>
		<path fill="none" stroke="#06ADF4" stroke-width="6" stroke-linecap="round" stroke-linejoin="round" d="M193.998,65.131v4.681
			h-17.786v-4.681H193.998z"/>
		<path fill="none" stroke="#06ADF4" stroke-width="6" stroke-linecap="round" stroke-linejoin="round" d="M223.157,43.745h-14.761
			v-5.328h35.93v5.328h-14.832v43.204h-6.337V43.745z"/>
		<path fill="none" stroke="#06ADF4" stroke-width="6" stroke-linecap="round" stroke-linejoin="round" d="M279.461,65.131v4.681
			h-17.786v-4.681H279.461z"/>
		<path fill="none" stroke="#06ADF4" stroke-width="6" stroke-linecap="round" stroke-linejoin="round" d="M343.83,62.179
			c0,16.706-10.153,25.563-22.539,25.563c-12.816,0-21.817-9.937-21.817-24.626c0-15.409,9.577-25.49,22.538-25.49
			C335.261,37.625,343.83,47.777,343.83,62.179z M306.17,62.971c0,10.369,5.617,19.658,15.481,19.658
			c9.937,0,15.554-9.145,15.554-20.162c0-9.648-5.041-19.729-15.481-19.729C311.354,42.737,306.17,52.314,306.17,62.971z"/>
	</g>
</g>
<g>
	<linearGradient id="SVGID_1_" gradientUnits="userSpaceOnUse" x1="28.3638" y1="113.9258" x2="359.1768" y2="113.9258">
		<stop  offset="0" style="stop-color:#CCE0F4"/>
		<stop  offset="0.066" style="stop-color:#C3DDF3"/>
		<stop  offset="0.1759" style="stop-color:#A9D3F2"/>
		<stop  offset="0.3161" style="stop-color:#80C4EF"/>
		<stop  offset="0.4793" style="stop-color:#47AFEC"/>
		<stop  offset="0.5674" style="stop-color:#25A3EA"/>
		<stop  offset="0.9944" style="stop-color:#0085A6"/>
	</linearGradient>
	<path fill="url(#SVGID_1_)" d="M29,126.418c0,0,1.263-0.32,3.629-0.922c2.369-0.593,5.834-1.505,10.263-2.58
		c4.432-1.066,9.779-2.488,15.999-3.792c6.208-1.342,13.198-2.977,20.876-4.472c3.842-0.735,7.845-1.501,11.987-2.293
		c4.143-0.799,8.432-1.592,12.867-2.263c4.43-0.707,8.981-1.434,13.633-2.176c1.164-0.18,2.331-0.387,3.51-0.546
		c1.181-0.149,2.369-0.299,3.562-0.45c2.387-0.299,4.796-0.601,7.226-0.904c9.705-1.329,19.802-2.187,30.054-3.104
		c5.141-0.288,10.323-0.579,15.524-0.87l3.906-0.218c1.303-0.071,2.61-0.069,3.917-0.106c2.613-0.057,5.229-0.113,7.845-0.17
		c2.616-0.04,5.232-0.08,7.846-0.12c2.614,0.012,5.227,0.096,7.832,0.141c2.606,0.054,5.208,0.107,7.801,0.161
		c1.297,0.027,2.592,0.054,3.884,0.081c1.292,0.045,2.58,0.139,3.866,0.205c5.145,0.281,10.246,0.591,15.284,0.924
		c5.023,0.498,9.985,0.99,14.867,1.475c4.887,0.423,9.656,1.149,14.328,1.807c4.667,0.691,9.251,1.241,13.663,2.096
		c4.42,0.788,8.719,1.556,12.878,2.298c2.081,0.355,4.106,0.817,6.098,1.248c1.99,0.433,3.944,0.856,5.857,1.272
		c3.822,0.849,7.5,1.586,10.967,2.424c3.457,0.88,6.735,1.714,9.816,2.498c3.078,0.789,5.958,1.527,8.622,2.21
		c2.643,0.759,5.07,1.456,7.263,2.086c4.385,1.255,7.812,2.306,10.154,2.993c2.34,0.696,3.588,1.067,3.588,1.067
		s-1.276-0.262-3.67-0.752c-2.391-0.499-5.906-1.188-10.357-2.149c-2.228-0.469-4.693-0.988-7.378-1.554
		c-2.695-0.513-5.609-1.067-8.724-1.66c-3.11-0.598-6.42-1.232-9.909-1.902c-3.496-0.629-7.184-1.222-11.022-1.878
		c-1.92-0.323-3.88-0.654-5.877-0.991c-1.997-0.335-4.027-0.7-6.111-0.956c-4.153-0.589-8.447-1.198-12.861-1.825
		c-4.401-0.7-8.967-1.091-13.612-1.62c-4.654-0.463-9.383-1.155-14.233-1.453c-4.84-0.381-9.761-0.769-14.742-1.16
		c-4.993-0.205-10.043-0.439-15.131-0.707c-1.272-0.058-2.547-0.143-3.825-0.179c-1.278-0.018-2.56-0.035-3.842-0.053
		c-2.565-0.036-5.139-0.071-7.716-0.107c-2.578-0.026-5.161-0.093-7.746-0.087c-2.586,0.055-5.174,0.109-7.762,0.165
		c-2.588,0.038-5.177,0.076-7.763,0.115c-1.292,0.028-2.586,0.017-3.876,0.078l-3.868,0.19c-5.154,0.254-10.287,0.507-15.379,0.758
		c-10.164,0.887-20.198,1.4-29.858,2.566c-2.418,0.253-4.817,0.504-7.192,0.753c-2.376,0.246-4.731,0.478-7.052,0.792
		c-4.648,0.583-9.196,1.153-13.623,1.709c-2.212,0.293-4.403,0.517-6.545,0.855c-2.146,0.317-4.258,0.63-6.336,0.937
		c-4.16,0.597-8.179,1.174-12.038,1.727c-3.868,0.511-7.533,1.224-11.048,1.752c-3.511,0.558-6.842,1.086-9.972,1.583
		c-6.266,0.96-11.713,1.964-16.208,2.714c-4.489,0.782-8.03,1.331-10.439,1.734C30.285,126.207,29,126.418,29,126.418z"/>
</g>
<g>
	<linearGradient id="SVGID_2_" gradientUnits="userSpaceOnUse" x1="53.5894" y1="114.0039" x2="333.7393" y2="114.0039">
		<stop  offset="0" style="stop-color:#CCE0F4"/>
		<stop  offset="0.066" style="stop-color:#C3DDF3"/>
		<stop  offset="0.1759" style="stop-color:#A9D3F2"/>
		<stop  offset="0.3161" style="stop-color:#80C4EF"/>
		<stop  offset="0.4793" style="stop-color:#47AFEC"/>
		<stop  offset="0.5674" style="stop-color:#25A3EA"/>
		<stop  offset="0.9944" style="stop-color:#0085A6"/>
	</linearGradient>
	<path fill="url(#SVGID_2_)" d="M54.226,124.805c0,0,1.066-0.28,3.066-0.805c2.001-0.516,4.928-1.315,8.67-2.248
		c3.746-0.927,8.263-2.162,13.522-3.291c5.249-1.166,11.159-2.582,17.655-3.872c3.25-0.637,6.636-1.299,10.14-1.984
		c3.504-0.691,7.134-1.37,10.887-1.95c3.749-0.61,7.601-1.236,11.537-1.877c1.966-0.343,3.964-0.615,5.986-0.858
		c2.021-0.257,4.06-0.517,6.117-0.777c8.216-1.138,16.765-1.89,25.447-2.668c8.708-0.481,17.549-1.103,26.418-1.171l6.646-0.099
		c2.214,0.012,4.427,0.084,6.634,0.123c2.208,0.047,4.411,0.094,6.607,0.141c1.099,0.023,2.195,0.047,3.29,0.07
		c1.094,0.039,2.185,0.119,3.274,0.177c4.357,0.238,8.679,0.506,12.945,0.798c4.254,0.43,8.456,0.854,12.59,1.272
		c4.139,0.367,8.177,0.984,12.132,1.556c3.951,0.598,7.832,1.075,11.565,1.81c3.741,0.68,7.379,1.341,10.899,1.98
		c1.761,0.309,3.474,0.707,5.158,1.079c1.685,0.373,3.337,0.739,4.955,1.099c3.233,0.732,6.345,1.368,9.276,2.093
		c2.923,0.761,5.694,1.482,8.3,2.16c2.602,0.683,5.036,1.321,7.287,1.912c2.233,0.657,4.284,1.261,6.138,1.806
		c3.705,1.085,6.598,2.001,8.576,2.598c1.977,0.605,3.03,0.928,3.03,0.928s-1.082-0.213-3.111-0.612
		c-2.027-0.407-5.009-0.964-8.78-1.754c-1.888-0.384-3.978-0.81-6.252-1.273c-2.283-0.421-4.752-0.877-7.39-1.363
		c-2.635-0.49-5.438-1.013-8.393-1.563c-2.964-0.491-6.08-1.008-9.332-1.547c-1.625-0.267-3.284-0.539-4.975-0.817
		c-1.69-0.276-3.409-0.577-5.173-0.786c-3.514-0.487-7.146-0.99-10.881-1.508c-3.725-0.581-7.586-0.899-11.516-1.335
		c-3.937-0.377-7.936-0.96-12.037-1.203c-4.092-0.313-8.253-0.634-12.465-0.957c-4.222-0.163-8.49-0.356-12.792-0.582
		c-1.076-0.048-2.153-0.119-3.233-0.148c-1.081-0.015-2.164-0.028-3.248-0.043c-2.169-0.028-4.344-0.058-6.523-0.087
		c-2.179-0.021-4.362-0.075-6.548-0.069l-6.562,0.143c-8.755-0.003-17.5,0.544-26.113,0.95c-8.593,0.747-17.08,1.155-25.251,2.13
		c-4.088,0.444-8.119,0.784-12.049,1.28c-3.933,0.48-7.781,0.951-11.527,1.41c-3.753,0.415-7.381,0.989-10.901,1.48
		c-3.521,0.489-6.924,0.963-10.19,1.417c-6.521,1.002-12.5,1.92-17.798,2.734c-5.306,0.786-9.923,1.604-13.731,2.214
		c-3.804,0.64-6.806,1.076-8.847,1.403C55.315,124.635,54.226,124.805,54.226,124.805z"/>
</g>
</svg>
