<?xml version="1.0" encoding="utf-8"?>
<!-- Generator: Adobe Illustrator 16.0.0, SVG Export Plug-In . SVG Version: 6.00 Build 0)  -->
<!DOCTYPE svg PUBLIC "-//W3C//DTD SVG 1.1//EN" "http://www.w3.org/Graphics/SVG/1.1/DTD/svg11.dtd">
<svg version="1.1" id="Calque_1" xmlns="http://www.w3.org/2000/svg" xmlns:xlink="http://www.w3.org/1999/xlink" x="0px" y="0px"
	 width="534.5px" height="150px" viewBox="0 0 534.5 150" enable-background="new 0 0 534.5 150" xml:space="preserve">
<g id="Calque_1_1_">
	<g id="Calque_2_Copie" transform="translate(5.00, 5.00)">
		<path fill="none" stroke="#0085A6" stroke-linecap="round" d="M15.408,58.015c2.16-9.308,6.472-22.02,28.732-35.963
			c12.36-7.74,30.547-11.865,51.172-4.74"/>
		<path fill="none" stroke="#0085A6" stroke-linecap="round" d="M15.625,56.74c1.875-10.5,4.65-22.567,26.91-36.51
			c12.36-7.74,33.51-11.4,53.438-2.85"/>
		<path fill="none" stroke="#0085A6" stroke-width="2" stroke-linecap="round" stroke-linejoin="round" d="M49.195,18.19
			c-0.225,0.135-6.712,3.18-8.505,4.118c-8.115,4.515-9.48,7.23-9.547,7.357l9.75-7.47c-0.18,0.21-5.22,3.315-9.863,7.522
			c-0.862,0.795-1.29,1.343-1.807,1.92l6.893-6.158l-10.073,9.495c-0.007,0.105,4.395-5.107,5.94-6.203
			c0.083-0.06,0.143-0.105,0.18-0.12c-0.067,0.135-3.638,3.045-6.75,6.3c-1.613,1.665-1.875,2.085-1.897,2.28
			c2.4-2.542,8.25-8.032,8.31-8.107c0.015-0.015,0.022-0.03,0.03-0.038"/>
		<path fill="none" stroke="#0085A6" stroke-width="2" stroke-linecap="round" stroke-linejoin="round" d="M25.817,35.605
			l-0.052,0.188l7.688-7.335l-0.008,0.038"/>
		<path fill="none" stroke="#0085A6" stroke-width="2" stroke-linecap="round" stroke-linejoin="round" d="M26.41,34.885
			c0.052,0,9.083-8.453,10.552-9.623c0.225-0.18,0.893-0.728,1.567-1.463l-0.03,0.03"/>
		<path fill="none" stroke="#0085A6" stroke-width="2" stroke-linecap="round" stroke-linejoin="round" d="M32.237,29.868
			c0.128-0.06,0.578-0.772,1.238-1.275c0.27-0.195,5.587-4.17,5.715-4.32c0.015-0.022,0.03-0.045,0.045-0.075"/>
		<path fill="none" stroke="#0085A6" stroke-width="2" stroke-linecap="round" stroke-linejoin="round" d="M31.96,29.913
			c0.188-0.337,0.435-0.705,0.667-0.885c0.232-0.188,3.877-3,3.96-3.27l-5.4,4.283l6.165-5.257l-4.89,3.765l10.823-7.417
			l-6.593,4.178l7.935-4.815l-7.373,4.342l8.67-5.16l-6.57,3.593c0.893-0.69,2.835-1.868,5.01-2.94
			c0.862-0.42,1.987-0.968,2.272-1.073c0.03-0.015,0.052-0.022,0.067-0.03"/>
		<path fill="none" stroke="#0085A6" stroke-linecap="round" stroke-linejoin="round" d="M18.228,47.973
			c0.015,0.038,0.143-0.383,0.232-0.78c0.053-0.21,3.368-6.99,5.22-9.12c0.63-0.638,3.195-3.255,4.38-4.013"/>
		<path fill="none" stroke="#0085A6" stroke-linecap="round" stroke-linejoin="round" d="M26.545,34.735l0.053-0.037l-5.573,7.313
			l3.278-5.258c-1.11,0.465-3.825,6.172-3.908,6.435c0,0.007-0.015,0.075-0.045,0.203"/>
		<path fill="none" stroke="#0085A6" stroke-linecap="round" stroke-linejoin="round" d="M23.425,38.065
			c-0.12,0.172-0.833,1.612-1.905,3.105c-0.277,0.382-1.095,2.235-1.71,3.45c-0.075,0.157-0.143,0.3-0.195,0.427
			c-0.008,0.015-0.015,0.038-0.023,0.053"/>
		<path fill="none" stroke="#0085A6" stroke-linecap="round" stroke-linejoin="round" d="M21.985,40.705
			c-0.15,0.322-4.252,8.64-4.313,9.015c-0.007,0.075,0.008,0.112,0.045,0.112"/>
		<path fill="none" stroke="#0085A6" stroke-linecap="round" stroke-linejoin="round" d="M32.042,29.897l-5.97,5.692l5.468-5.145
			l-6.015,5.363l5.078-5.377l-5.678,5.992l4.545-4.935l-7.065,8.415l4.583-5.317l-4.095,5.587l3.337-4.853l-3.592,5.018l3.975-5.123
			L22.697,40.6l4.26-6.022l-4.882,5.992l3.277-5.43c-0.053,0.067-1.493,1.417-1.868,2.055c-2.235,3.81-2.647,4.958-2.842,5.67
			l4.515-7.35c-0.405-0.36-3.84,5.325-4.628,7.087c-0.255,0.57-0.39,1.065-0.382,1.177c0.007,0.008,0,0.03-0.007,0.053"/>
		<path fill="none" stroke="#0085A6" stroke-linecap="round" stroke-linejoin="round" d="M24.558,37.555
			c-0.045,0.105-0.083,0.165-0.105,0.195s-0.068,0.06-0.135,0.09"/>
		<path fill="none" stroke="#0085A6" stroke-linecap="round" stroke-linejoin="round" d="M33.985,27.078
			c-0.232,0.188-2.04,1.537-2.22,1.688c-0.06,0.052-0.615,0.435-0.705,0.518"/>
		<path fill="none" stroke="#0085A6" stroke-linecap="round" stroke-linejoin="round" d="M35.087,25.63
			c0.008,0-0.015,0.015-0.06,0.038c-2.962,1.703-10.417,9.315-11.482,10.837l0.188-0.195"/>
		<path fill="none" stroke="#0085A6" stroke-linecap="round" stroke-linejoin="round" d="M28.397,31.112
			c-0.308,0.353-1.927,2.108-2.393,2.738c-0.397,0.54-1.357,1.913-1.387,1.935l6.18-6.435c-4.672,2.797-7.26,7.853-7.365,8.123
			c0.157,0.038,0.262,0.007,0.435-0.127c0.03-0.022,0.06-0.045,0.105-0.075"/>
		<path fill="none" stroke="#0085A6" stroke-linecap="round" stroke-linejoin="round" d="M35.26,25.42
			c-1.267,0.938-2.055,1.545-2.7,2.04c-1.53,1.395-4.005,3.72-4.958,4.658c-1.035,0.802-4.62,5.625-5.58,6.96
			c-1.71,2.355-3.502,7.575-4.425,10.275c-0.075,0.232-0.225,0.817-0.502,1.658c-0.03,0.09-0.045,0.142-0.045,0.15"/>
		<path fill="none" stroke="#0085A6" stroke-linecap="round" stroke-linejoin="round" d="M29.53,31.75
			c0.225-0.33,10.193-8.085,10.425-8.28c0.022-0.022,0.06-0.045,0.105-0.075"/>
		<path fill="none" stroke="#0085A6" stroke-linecap="round" stroke-linejoin="round" d="M42.692,21.362c0,0,0.315-0.195,0.57-0.352
			c4.545-2.745,9.787-4.32,9.78-4.32l-8.947,3.585l7.395-3.435l-10.598,5.078l7.762-3.922l-8.58,4.815
			c0.09,0.007,1.552-1.065,3.277-2.145c1.35-0.84,2.04-1.245,2.933-1.74c0.105-0.06,0.172-0.097,0.195-0.112"/>
		<path fill="none" stroke="#0085A6" stroke-linecap="round" stroke-linejoin="round" d="M50.815,17.448
			c-0.007,0.015-7.688,4.327-11.4,6.854c-0.075,0.053-0.135,0.09-0.188,0.113"/>
		<path fill="none" stroke="#0085A6" stroke-linecap="round" stroke-linejoin="round" d="M46.795,19.683
			c-0.66,0.623-5.813,3.802-8.002,4.995c-0.18,0.09-0.712,0.548-1.177,0.915c4.08-3.75,11.977-7.32,11.992-7.342l-11.385,6.083
			c0.277-0.33,4.125-3.578,7.012-5.01c0.982-0.488,4.778-1.71,6.292-2.258c0.72-0.24,1.928-0.547,2.423-0.652
			c0.045-0.008,0.075-0.015,0.09-0.022"/>
		<path fill="none" stroke="#0085A6" stroke-linecap="round" stroke-linejoin="round" d="M47.672,19.022l10.193-4.177l-8.52,3.188
			l10.462-3.54l-9.397,3.12l9.592-3.188l-8.947,2.648l10.695-3.038l-10.388,2.827l9.285-2.94l-12.525,4.89l0.225,0.12"/>
		<path fill="none" stroke="#0085A6" stroke-linecap="round" stroke-linejoin="round" d="M52.308,17.035l6.675-2.528l-5.018,1.875
			c1.035-1.08,4.53-2.115,4.868-2.212c0.712-0.217,1.845-0.397,1.95-0.353c0.015,0.008,0.037,0.015,0.067,0.015"/>
		<path fill="none" stroke="#0085A6" stroke-linecap="round" stroke-linejoin="round" d="M54.678,15.542
			c0.03,0.015,4.672-1.538,11.182-2.723c2.093-0.382,4.403-0.217,4.388-0.217c-1.208,0.33-3.458,0.315-4.313,0.442
			c-0.712,0.105-3.442,0.817-3.45,0.788l7.74-0.735l-7.665,0.757c3.007-0.652,9.067-1.14,9.375-1.147
			c0.531-0.022,3.029,0.3,3.021,0.3l-7.515,0.068c0.653,0.067,4.133-0.12,5.896-0.068c0.885,0.038,4.664,0.607,4.688,0.578
			l-9.203-0.36l12.473,0.382l0.203-0.045"/>
		<path fill="none" stroke="#0085A6" stroke-linecap="round" stroke-linejoin="round" d="M67.51,13.09l0.113-0.007
			c-1.47-0.06-4.283,0.6-5.655,0.833c-1.875,0.308-4.627,1.215-4.612,1.208l7.68-1.958c-6.623,1.215-12.863,4.012-13.658,4.38
			l6.39-2.58l-10.613,4.733L57.94,14.83l-7.785,3.262c0.795-0.75,3.533-1.74,3.72-1.83c1.23-0.57,10.485-3.127,12.893-3.24
			l-12.27,2.828l11.46-2.37c-1.973-0.803-14.752,3.465-19.402,5.85c-0.263,0.143-0.525,0.285-0.78,0.42"/>
		<path fill="none" stroke="#0085A6" stroke-linecap="round" stroke-linejoin="round" d="M66.82,13.112
			c-0.412-0.105-5.647,0.51-7.335,1.313c-0.127,0.053-5.28,1.313-5.498,1.268l4.86-1.328c-4.125-0.742-16.328,6.158-16.568,6.315
			c-1.583,1.087-9.12,6.877-10.087,8.032c-0.097,0.113-0.232,0.292-0.413,0.54c-0.037,0.053-0.06,0.083-0.06,0.098"/>
		<path fill="none" stroke="#0085A6" stroke-linecap="round" stroke-linejoin="round" d="M47.86,18.235
			c-0.66,0.03-3.72,1.62-5.242,2.25c-3.705,1.553-7.635,5.063-10.17,6.81c-0.525,0.428-6.015,6.24-6.78,7.605
			c-0.083,0.15-0.165,0.3-0.248,0.45"/>
		<path fill="none" stroke="#0085A6" stroke-linecap="round" stroke-linejoin="round" d="M53.777,16.728l0.24-0.075
			c-0.908,0.165-6.908,2.61-7.357,2.7c-0.877,0.188-11.093,7.387-12.127,8.288c1.005-1.125,8.445-7.47,11.055-8.535l-7.815,5.002
			l6.728-4.5c-0.112,0.143-2.46,1.297-3.502,2.047c-4.328,3.15-8.078,6.465-9.038,7.298l6.12-4.958
			c-1.02,0.675-5.58,4.583-5.917,4.89c-0.938,0.854-4.08,4.432-4.118,4.455c0.525-0.45,4.11-4.485,6.127-6.06
			c0.3-0.24,0.758-0.6,1.357-1.08l-8.077,7.92l5.955-6.06c-0.495,0.345-4.635,4.155-5.055,4.552c-1.192,1.17-2.063,2.363-2.31,2.752
			c-0.038,0.053-0.09,0.135-0.165,0.24"/>
		<path fill="none" stroke="#0085A6" stroke-linecap="round" stroke-linejoin="round" d="M75.641,12.902
			c0.667,0,1.305,0.038,2.107,0.127c4.072,0.053,7.792,1.133,7.896,1.11l1.621,0.472"/>
		<path fill="none" stroke="#0085A6" stroke-linecap="round" stroke-linejoin="round" d="M24.79,37.308l-3.953,4.86l2.482-3.098
			l-2.79,3.885l2.243-2.925l-2.475,3.255l2.738-3.84c-0.397,0.63-2.603,3.368-3.908,5.445c-0.112,0.188-0.18,0.3-0.203,0.337"/>
		<path fill="none" stroke="#0085A6" stroke-linecap="round" stroke-linejoin="round" d="M55.803,15.49l0.172-0.097
			c-0.127,0.135-5.01,1.185-5.13,1.26c-0.383,0.233-4.358,1.673-4.643,1.95l8.692-3.81c-0.652,0.413-7.087,2.737-9.15,4.058
			c-1.703,1.11-3.337,1.987-3.36,2.04l11.903-4.8l-8.34,4.028l8.085-3.638L43.6,21.212l8.685-4.522
			c-0.127,0.038-2.475,0.893-3.968,1.478c-2.917,1.155-4.68,2.505-4.762,2.542l8.932-4.328l-11.085,5.265l10.62-4.447l-9.833,4.688
			c-0.052,0.03,8.618-4.658,11.31-5.415c0.413-0.113,1.65-0.518,3.188-1.35l-8.107,2.61l11.475-3.54l-8.093,2.91l10.275-2.955
			l-9.51,2.692c0.6-0.57,11.145-2.827,11.587-2.857c1.74-0.105,2.55-0.382,2.715-0.42c0.015-0.007,0.03-0.007,0.045-0.007"/>
		<path fill="none" stroke="#0085A6" stroke-linecap="round" stroke-linejoin="round" d="M75.213,12.978l-0.211-0.038l7.479,1.178
			l-5.686-0.938l0.105,0.045"/>
		<path fill="none" stroke="#0085A6" stroke-linecap="round" stroke-linejoin="round" d="M56.29,15.708l-0.172,0.098
			c0.765-0.045,12.39-2.708,17.416-2.475c3.899,0.24,10.949,0.84,11.107,0.84c-1.875-0.502-5.91-0.922-7.156-0.953
			c-0.27-0.007-0.569,0.008-0.893,0.045c-0.066,0.007-0.119,0.007-0.149,0.007"/>
		<path fill="none" stroke="#14A2E4" stroke-linecap="round" d="M124.082,88.465c-4.035,9.256-10.845,21.51-35.452,31.02
			c-13.597,5.244-32.22,5.521-51.3-6.307"/>
		<path fill="none" stroke="#14A2E4" stroke-linecap="round" d="M123.609,89.755c-3.997,10.56-9.156,22.455-33.75,31.95
			c-13.582,5.234-35.024,4.395-53.174-8.745"/>
		<path fill="none" stroke="#14A2E4" stroke-width="2" stroke-linecap="round" stroke-linejoin="round" d="M82.938,122.342
			c0.24-0.09,7.192-1.792,9.135-2.369c8.836-2.873,10.711-5.377,10.801-5.49l-11.025,5.559c0.217-0.173,5.768-2.266,11.152-5.587
			c1.005-0.623,1.529-1.104,2.152-1.591l-7.98,4.845l11.768-7.59c0.023-0.104-5.332,4.313-7.064,5.106
			c-0.09,0.045-0.158,0.068-0.195,0.084c0.09-0.129,4.162-2.349,7.875-5.033c1.912-1.356,2.258-1.739,2.318-1.936
			c-2.865,2.094-9.698,6.48-9.773,6.549c-0.021,0.014-0.029,0.029-0.037,0.036"/>
		<path fill="none" stroke="#14A2E4" stroke-width="2" stroke-linecap="round" stroke-linejoin="round" d="M109.285,109.51
			l0.09-0.172l-9,5.887l0.008-0.045"/>
		<path fill="none" stroke="#14A2E4" stroke-width="2" stroke-linecap="round" stroke-linejoin="round" d="M108.558,110.125
			c-0.045-0.008-10.591,6.742-12.255,7.627c-0.256,0.137-1.02,0.548-1.83,1.156l0.037-0.023"/>
		<path fill="none" stroke="#14A2E4" stroke-width="2" stroke-linecap="round" stroke-linejoin="round" d="M101.838,114.04
			c-0.135,0.022-0.713,0.66-1.463,1.035c-0.3,0.149-6.3,3.075-6.457,3.202c-0.016,0.021-0.03,0.037-0.053,0.068"/>
		<path fill="none" stroke="#14A2E4" stroke-width="2" stroke-linecap="round" stroke-linejoin="round" d="M102.123,114.047
			c-0.248,0.314-0.57,0.631-0.833,0.773c-0.263,0.135-4.396,2.234-4.522,2.496l6.135-3.231l-7.08,4.073l5.535-2.807l-12.061,5.266
			l7.275-2.857l-8.723,3.219l8.078-2.857l-9.503,3.413l7.14-2.259c-1.012,0.511-3.143,1.306-5.482,1.929
			c-0.93,0.247-2.137,0.563-2.438,0.606c-0.029,0.008-0.06,0.008-0.074,0.016"/>
		<path fill="none" stroke="#14A2E4" stroke-linecap="round" stroke-linejoin="round" d="M119.252,98.342
			c-0.007-0.037-0.217,0.375-0.39,0.758c-0.09,0.219-4.732,6.533-6.982,8.334c-0.75,0.518-3.788,2.662-5.107,3.188"/>
		<path fill="none" stroke="#14A2E4" stroke-linecap="round" stroke-linejoin="round" d="M108.4,110.252l-0.061,0.031l6.945-6.354
			l-4.275,4.731c1.186-0.231,5.003-5.558,5.138-5.813c0-0.008,0.03-0.074,0.083-0.201"/>
		<path fill="none" stroke="#14A2E4" stroke-linecap="round" stroke-linejoin="round" d="M112.127,107.5
			c0.158-0.165,1.148-1.492,2.506-2.805c0.345-0.338,1.529-2.086,2.377-3.211c0.105-0.149,0.203-0.277,0.277-0.404
			c0.016-0.016,0.023-0.03,0.03-0.045"/>
		<path fill="none" stroke="#14A2E4" stroke-linecap="round" stroke-linejoin="round" d="M114.085,105.078
			c0.202-0.301,5.16-6.689,5.58-7.434c0.239-0.42,0.397-0.75,0.487-0.998c0.03-0.082,0.022-0.127-0.022-0.135"/>
		<path fill="none" stroke="#14A2E4" stroke-linecap="round" stroke-linejoin="round" d="M102.04,114.047l6.989-4.574l-6.389,4.117
			l6.967-4.215l-6.045,4.439l6.766-4.949l-5.453,4.102l8.625-7.154l-5.564,4.5l5.137-4.891l-4.244,4.299l4.529-4.402l-4.928,4.425
			l4.928-4.718l-5.4,5.304l6.008-5.14l-4.313,4.914c0.061-0.061,1.748-1.141,2.242-1.719c2.963-3.457,3.607-4.56,3.945-5.258
			l-5.925,6.623c0.33,0.465,4.845-4.672,5.985-6.322c0.359-0.539,0.592-1.02,0.607-1.148c0-0.006,0-0.021,0.015-0.051"/>
		<path fill="none" stroke="#14A2E4" stroke-linecap="round" stroke-linejoin="round" d="M110.912,107.77
			c0.068-0.09,0.113-0.148,0.143-0.18c0.03-0.021,0.083-0.045,0.15-0.061"/>
		<path fill="none" stroke="#14A2E4" stroke-linecap="round" stroke-linejoin="round" d="M99.572,116.521
			c0.27-0.135,2.303-1.131,2.513-1.244c0.067-0.045,0.69-0.322,0.795-0.375"/>
		<path fill="none" stroke="#14A2E4" stroke-linecap="round" stroke-linejoin="round" d="M98.215,117.783
			c-0.008-0.008,0.016-0.016,0.068-0.031c3.232-1.109,12.066-7.327,13.417-8.67l-0.218,0.166"/>
		<path fill="none" stroke="#14A2E4" stroke-linecap="round" stroke-linejoin="round" d="M105.857,113.59
			c0.367-0.293,2.311-1.755,2.895-2.295c0.503-0.48,1.711-1.68,1.756-1.703l-7.357,5.297c5.152-1.869,8.691-6.525,8.85-6.781
			c-0.143-0.073-0.248-0.066-0.442,0.037c-0.038,0.017-0.075,0.039-0.12,0.053"/>
		<path fill="none" stroke="#14A2E4" stroke-linecap="round" stroke-linejoin="round" d="M98.005,117.963
			c1.425-0.689,2.317-1.148,3.045-1.516c3.556-2.205,9.015-6.112,9.78-6.676c4.41-3.276,8.686-11.58,9.322-12.728
			c0.12-0.226,0.391-0.803,0.832-1.62c0.045-0.09,0.076-0.135,0.076-0.143"/>
		<path fill="none" stroke="#14A2E4" stroke-linecap="round" stroke-linejoin="round" d="M104.867,112.684
			c-0.285,0.291-11.588,6.104-11.857,6.254c-0.022,0.017-0.06,0.037-0.112,0.062"/>
		<path fill="none" stroke="#14A2E4" stroke-linecap="round" stroke-linejoin="round" d="M89.92,120.505
			c0,0.009-0.345,0.136-0.623,0.24c-4.986,1.821-10.424,2.302-10.424,2.302l9.465-1.725l-7.905,1.904l11.362-2.896l-8.37,2.325
			l9.345-3.067c-0.09-0.022-1.725,0.759-3.629,1.485c-1.486,0.568-2.236,0.84-3.211,1.154c-0.112,0.037-0.188,0.061-0.209,0.066"/>
		<path fill="none" stroke="#14A2E4" stroke-linecap="round" stroke-linejoin="round" d="M81.205,122.755
			c0.067-0.075,6.623-2.19,6.766-2.241c0.93-0.309,5.212-2.115,5.729-2.318c0.09-0.029,0.157-0.061,0.21-0.074"/>
		<path fill="none" stroke="#14A2E4" stroke-linecap="round" stroke-linejoin="round" d="M85.578,121.338
			c0.764-0.496,6.861-2.775,8.813-3.383c0.194-0.061,0.802-0.412,1.326-0.689c-4.725,2.963-13.162,4.904-13.177,4.936l12.345-3.771
			c-0.345,0.276-4.74,2.781-7.852,3.621c-1.059,0.278-5.011,0.713-6.601,0.938c-0.758,0.092-2.003,0.144-2.497,0.15
			c-0.053-0.008-0.083,0-0.098,0"/>
		<path fill="none" stroke="#14A2E4" stroke-linecap="round" stroke-linejoin="round" d="M84.58,121.825l-10.785,2.069l8.963-1.418
			c-3.758,1.254-10.516,1.381-10.936,1.352l9.811-1.156l-10.013,1.186l9.277-0.771l-11.07,0.795l10.733-0.646l-9.668,0.998
			l13.207-2.295l-0.188-0.172"/>
		<path fill="none" stroke="#14A2E4" stroke-linecap="round" stroke-linejoin="round" d="M79.66,122.854l-7.027,1.14l5.279-0.832
			c-1.223,0.877-4.845,1.187-5.197,1.215c-0.742,0.062-1.883,0.008-1.98-0.067c-0.014-0.015-0.029-0.021-0.06-0.029"/>
		<path fill="none" stroke="#14A2E4" stroke-linecap="round" stroke-linejoin="round" d="M77.058,123.873
			c-0.03-0.031-4.883,0.555-11.49,0.352c-2.13-0.065-4.373-0.727-4.35-0.727c1.245-0.083,3.45,0.427,4.32,0.479
			c0.712,0.045,3.525-0.09,3.525-0.053l-7.74-0.938l7.673,0.9c-3.075,0.006-9.12-0.811-9.42-0.863
			c-0.533-0.098-2.933-0.976-2.925-0.976l7.41,1.567c-0.63-0.209-4.087-0.771-5.813-1.215c-0.87-0.226-4.485-1.635-4.515-1.605
			l8.993,2.371l-12.21-3.113l-0.203,0.008"/>
		<path fill="none" stroke="#14A2E4" stroke-linecap="round" stroke-linejoin="round" d="M63.993,123.596l-0.113-0.023
			c1.433,0.384,4.32,0.316,5.708,0.384c1.905,0.09,4.77-0.24,4.754-0.24l-7.904,0.339c6.734,0.194,13.38-1.313,14.234-1.523
			l-6.757,1.254l11.31-2.543l-11.504,2.646l8.25-1.65c-0.924,0.594-3.796,1.014-3.998,1.066c-1.305,0.313-10.875,0.93-13.26,0.524
			l12.571-0.231l-11.693-0.068c1.792,1.252,15.135-0.338,20.152-1.777c0.285-0.09,0.563-0.172,0.848-0.264"/>
		<path fill="none" stroke="#14A2E4" stroke-linecap="round" stroke-linejoin="round" d="M64.675,123.715
			c0.39,0.195,5.64,0.705,7.448,0.256c0.135-0.031,5.43-0.203,5.64-0.104l-5.018,0.3c3.907,1.656,17.183-2.762,17.452-2.872
			c1.763-0.772,10.283-5.078,11.461-6.053c0.119-0.099,0.292-0.257,0.51-0.474c0.045-0.037,0.074-0.066,0.082-0.082"/>
		<path fill="none" stroke="#14A2E4" stroke-linecap="round" stroke-linejoin="round" d="M84.258,122.59
			c0.652,0.113,3.952-0.855,5.564-1.17c0.893-0.18,3.061-1.236,3.391-1.26c1.521-0.12,5.092-2.271,7.912-3.518
			c0.6-0.322,7.141-5.123,8.168-6.367c0.111-0.135,0.225-0.271,0.33-0.405"/>
		<path fill="none" stroke="#14A2E4" stroke-linecap="round" stroke-linejoin="round" d="M78.16,122.846l-0.256,0.029
			c0.924,0.029,5.799-0.248,12.623-2.88c2.01-0.99,7.68-3.606,8.617-4.163c-1.207,0.932-9.727,5.836-12.494,6.354l8.625-3.436
			l-7.463,3.165c0.135-0.128,2.662-0.795,3.832-1.335c4.854-2.303,9.188-4.896,10.291-5.535l-6.976,3.758
			c1.132-0.465,6.368-3.494,6.757-3.734c1.088-0.676,4.891-3.69,4.928-3.697c-0.6,0.345-4.928,3.729-7.207,4.913
			c-0.346,0.172-0.862,0.448-1.553,0.81l9.503-6.396l-7.05,4.949c0.555-0.248,5.369-3.271,5.857-3.601
			c1.41-0.938,2.497-1.979,2.827-2.323c0.045-0.054,0.112-0.129,0.21-0.22"/>
		<path fill="none" stroke="#14A2E4" stroke-linecap="round" stroke-linejoin="round" d="M55.96,122.014
			c-0.652-0.15-1.282-0.324-2.047-0.594c-4.013-0.938-7.485-2.857-7.59-2.857l-1.515-0.84"/>
		<path fill="none" stroke="#14A2E4" stroke-linecap="round" stroke-linejoin="round" d="M110.635,107.98l4.867-4.17l-3.066,2.67
			l3.531-3.428l-2.797,2.549l3.09-2.834l-3.465,3.383c0.51-0.563,3.232-2.926,4.942-4.801c0.15-0.164,0.24-0.271,0.271-0.308"/>
		<path fill="none" stroke="#14A2E4" stroke-linecap="round" stroke-linejoin="round" d="M75.939,123.67l-0.188,0.066
			c0.15-0.104,5.146-0.127,5.273-0.172c0.42-0.164,4.59-0.766,4.928-0.989l-9.256,2.01c0.721-0.276,7.471-1.26,9.75-2.167
			c1.883-0.766,3.652-1.313,3.683-1.365l-12.593,2.34l8.947-2.316l-8.617,1.972l11.138-2.587l-9.382,2.753
			c0.127-0.008,2.587-0.375,4.17-0.651c3.082-0.549,5.069-1.554,5.16-1.576l-9.594,2.498l11.881-2.992l-11.273,2.25l10.546-2.662
			c0.06-0.023-9.338,2.895-12.136,3.098c-0.42,0.021-1.709,0.164-3.375,0.682l8.453-0.906l-11.933,1.125l8.49-1.217l-10.643,0.796
			l9.84-0.688c-0.697,0.449-11.475,0.473-11.917,0.404c-1.725-0.277-2.572-0.157-2.737-0.157c-0.022,0-0.038,0-0.053,0"/>
		<path fill="none" stroke="#14A2E4" stroke-linecap="round" stroke-linejoin="round" d="M56.395,122.035l0.203,0.074l-7.163-2.826
			l5.438,2.189l-0.098-0.068"/>
		<path fill="none" stroke="#14A2E4" stroke-linecap="round" stroke-linejoin="round" d="M75.505,123.348l0.188-0.061
			c-0.757-0.119-12.675,0.074-17.58-1.252c-3.795-1.096-10.642-3.248-10.792-3.277c1.763,0.914,5.663,2.234,6.877,2.535
			c0.27,0.061,0.57,0.111,0.893,0.143c0.068,0.008,0.113,0.016,0.15,0.021"/>
		<path fill="none" stroke="#06ADF4" stroke-width="3" stroke-linecap="round" d="M30.085,43.368
			c-10.62,2.438-14.708,5.857-17.55,8.385c-4.388,3.915-6.113,7.47-6.12,11.25c0,2.573,0.712,5.235,2.565,7.5
			c3.518,4.313,7.68,7.793,13.995,11.056c3.353,1.727,7.103,3.315,11.145,4.732c1.965,0.689,3.998,1.335,6.09,1.941
			c1.897,0.547,3.84,1.059,5.82,1.531c6.863,1.635,14.175,2.805,21.563,3.396c4.658,0.375,9.375,0.531,14.025,0.465
			c3.391-0.053,6.75-0.217,10.035-0.502c2.272-0.195,4.508-0.451,6.697-0.766c7.846-1.133,15.03-3.008,20.888-5.678
			c5.521-2.521,9.848-5.729,12.428-9.66c1.815-2.761,2.768-5.879,2.67-9.359c-0.083-2.85-0.878-5.94-2.482-9.278"/>
		<path fill="none" stroke="#06ADF4" stroke-width="3" stroke-linecap="round" d="M16.06,48.797
			c-2.738,1.763-5.243,3.81-7.882,6.473c-4.32,4.335-4.853,6.885-4.875,10.808C3.28,68.755,4.428,72.1,6.325,74.439
			c3.622,4.455,5.962,6.547,12.472,9.893c3.458,1.777,8.843,4.32,13.02,5.768c2.033,0.705,4.133,1.365,6.292,1.98
			c1.958,0.563,3.968,1.08,6.008,1.561c7.095,1.664,14.655,2.842,22.297,3.42c4.822,0.367,9.697,0.502,14.521,0.412
			c3.51-0.068,6.989-0.256,10.387-0.57c2.355-0.217,4.673-0.493,6.938-0.832c8.131-1.207,15.586-3.194,21.668-6
			c5.723-2.633,10.23-5.991,12.922-10.088c1.898-2.879,2.902-6.119,2.82-9.728c-0.074-2.962-1.5-6.51-3.143-9.96"/>
		<path fill="none" stroke="#06ADF4" stroke-width="3" stroke-linecap="round" stroke-linejoin="round" d="M17.103,80.785
			l10.792,5.316l-11.377-4.59c1.5,2.737,12.345,6.541,12.427,6.6l-9.69-5.151l11.107,4.282L17.44,81.25l13.553,5.377
			c-1.838-1.979-11.835-5.452-12.397-5.781c0.015,0.029,8.962,4.313,12.75,6.127c2.122,1.043,4.057,1.605,5.302,1.822l-11.535-3.6
			c0.713,2.152,11.91,4.268,12.525,4.38l-9.975-2.618c3.435,2.955,11.46,3.465,11.708,3.503l-11.063-2.67l12.93,3.606l-11.745-2.961
			c1.605,0.742,10.762,3.66,13.342,3.84c1.027,0.065,2.865-0.062,2.895-0.098l-7.395-1.898l6.667,1.148l-9.075-2.184l8.332,1.29
			l-14.257-4.351c0.413,0.404,9.6,3.338,12.143,3.51c0.188,0.009,0.292,0.016,0.315,0.009c0.083-0.226-13.965-4.599-14.737-4.958
			c-0.135-0.061-0.27-0.128-0.405-0.195"/>
		<path fill="none" stroke="#06ADF4" stroke-width="3" stroke-linecap="round" stroke-linejoin="round" d="M42.183,91.675
			c0.075-0.036,2.197,0.66,2.775,0.75c1.252,0.202,3.075,0.915,6.382,1.237c0.203,0.016,0.72,0.068,1.32-0.021l-9.998-1.492
			l8.07,1.718l0.87-0.104l-7.005-1.471l12.427,1.688l-11.88-2.386l11.4,1.591l-15.367-3.181l13.26,2.663L43.09,89.389l8.813,2.521
			l-11.19-1.748c0.795,1.409,20.618,4.508,20.723,4.47"/>
		<path fill="none" stroke="#06ADF4" stroke-width="3" stroke-linecap="round" stroke-linejoin="round" d="M44.23,93.078
			c0.158,0.164,0.51,0.299,1.118,0.389c3.66,0.541,8.745,0.961,8.775,0.969c3.3,1.297,15.532,0.441,15.45,0.42
			c-0.615-0.104-8.512-0.067-12.847-0.66c-0.075-0.008-6.158-1.192-6.21-1.064c0.18,0.188,8.385,1.538,12.015,1.583
			c0.06,0,0.128-0.008,0.188-0.008L51.85,93.91c0,0.015,5.475,1.515,8.092,1.305c0.105-0.008,0.36-0.015,0.772-0.029"/>
		<path fill="none" stroke="#06ADF4" stroke-width="3" stroke-linecap="round" stroke-linejoin="round" d="M52.067,94.6
			c0.772,0.232,7.883,1.389,10.275,1.658c0.435,0.09,4.11-0.09,6.248-0.008c0.232,0.008,0.525,0.008,0.87-0.008
			c0.255-0.008,0.51-0.016,0.757-0.021"/>
		<path fill="none" stroke="#06ADF4" stroke-width="3" stroke-linecap="round" stroke-linejoin="round" d="M62.328,95.207
			c1.425,0.359,9.563,0.465,11.565,0.121c0.143-0.031,0.217-0.053,0.24-0.092c-0.375,0.264-2.791,0.414-5.445,0.443
			c-2.152,0.016-7.373-0.502-7.365-0.502l12.676,0.156l-9.346-0.523l10.35-0.054c-2.955-0.329-10.627-0.862-13.387-1.178
			c-0.638-0.054-7.125-1.192-7.5-1.17l11.82,1.567L53.26,92.695l20.22,1.965L61.9,93.813l11.198,1.059
			c-2.063-0.487-12.405-0.997-15.008-1.484c-2.82-0.564-6.42-1.283-6.757-1.351l8.723,0.84L49,91.457l11.025,2.385
			c-0.99-0.277-4.305,0.361-5.092,0.264c-4.695-0.639-5.175-0.51-5.183-0.479l14.085,1.097c-0.585-0.24-12.263-2.438-13.56-2.589
			c-0.675-0.083-1.342-0.157-2.018-0.239c-0.487-0.045-0.975-0.099-1.462-0.144"/>
		<path fill="none" stroke="#06ADF4" stroke-width="3" stroke-linecap="round" stroke-linejoin="round" d="M96.258,94.322
			c-0.008,0-9.158,0.51-12.322,0.795c-0.886,0.074-5.783-0.061-5.708-0.09c4.274,0.256,15.098,0.824,20.819-0.894
			c-1.957-0.262-20.234,0.33-20.399,0.302c-0.09-0.023-0.232-0.039-0.42-0.054"/>
		<path fill="none" stroke="#06ADF4" stroke-width="3" stroke-linecap="round" stroke-linejoin="round" d="M99.888,92.95
			c-0.548,0.135-1.425,0.3-1.921,0.345c-1.762,0.082-5.542,0.383-10.582,0.51c-0.93,0.062-2.107,0.129-2.685,0.135
			c-0.104,0-0.247,0.008-0.421,0.008"/>
		<path fill="none" stroke="#06ADF4" stroke-width="3" stroke-linecap="round" stroke-linejoin="round" d="M95.418,94.391
			c-1.125,0.217-1.951,0.473-2.229,0.502c-3.18,0.338-12.802,0.309-14.234,0.232c-0.225-0.016-0.66-0.045-1.29-0.098"/>
		<path fill="none" stroke="#06ADF4" stroke-width="3" stroke-linecap="round" stroke-linejoin="round" d="M96.266,94.742
			c-0.323,0.023-2.604,0.773-4.328,1.013c-1.402,0.195-9.615,0.292-10.433,0.188c-0.165-0.022-0.465-0.045-0.899-0.075"/>
		<path fill="none" stroke="#06ADF4" stroke-width="3" stroke-linecap="round" stroke-linejoin="round" d="M95.942,95.146
			c-0.555-0.015-10.604,1.319-13.771,1.237c-0.682-0.022-3.524-0.053-4.26-0.09c-0.816-0.045-2.542-0.345-2.984-0.457
			c-0.061-0.022-0.12-0.045-0.173-0.067"/>
		<path fill="none" stroke="#06ADF4" stroke-width="3" stroke-linecap="round" stroke-linejoin="round" d="M87.835,96.107
			c-1.027,0.149-4.763,0.742-5.851,0.66c-1.087-0.082-5.789-0.302-5.797-0.285c3.27,0.869,13.439-0.689,15.105-0.99
			c-0.008,0-10.291-0.631-11.003-0.667c-1.223-0.099-2.925-0.218-3.675-0.173c-0.045,0.008-0.098,0.008-0.15,0.016"/>
		<path fill="none" stroke="#06ADF4" stroke-width="3" stroke-linecap="round" stroke-linejoin="round" d="M85.585,94.277
			c-0.067-0.067-2.01,0.074-2.819,0.127c-2.078,0.129-4.928,0.082-6.203,0.188c-0.922,0.083-1.516,0.105-2.063,0.083"/>
		<path fill="none" stroke="#06ADF4" stroke-width="3" stroke-linecap="round" stroke-linejoin="round" d="M83.207,94.945
			l-15.682-0.354c2.002,0.316,15.727,1.464,17.408,0.788c-0.675-0.218-11.7,0.788-16.86,0.413c-0.922-0.083-2.1-0.181-2.265-0.158
			c0.652,0.474,3.367,0.796,6.638,0.796c1.342-0.029,7.792-0.511,8.362-0.488c-0.008-0.014-2.445,0.488-5.573,0.384
			c-3.382-0.075-9.989-0.33-10.004-0.278c1.815,0.323,3.075,0.383,7.522,0.314c4.125-0.036,4.711-0.074,7.658-0.471
			c0.188-0.023,0.367-0.045,0.555-0.068"/>
		<path fill="none" stroke="#06ADF4" stroke-width="3" stroke-linecap="round" stroke-linejoin="round" d="M111.588,90.641
			c-3.878,1.822-12.953,2.588-17.58,3.201l17.002-1.672l-16.732,1.096l15.66-1.793c-8.654,2.385-17.55,3.359-19.553,3.652
			c0.578,0.165,1.238,0.061,2.145-0.143c0.076-0.017,0.143-0.029,0.211-0.045"/>
		<path fill="none" stroke="#06ADF4" stroke-width="3" stroke-linecap="round" stroke-linejoin="round" d="M109.915,91.975
			c-1.327,0.578-3.285,1.32-5.723,1.777c-1.425,0.271-3.833,0.465-4.739,0.602c-0.766,0.111-2.686,0.523-3.57,0.563
			c-0.105,0.007-0.158,0.007-0.173,0.016"/>
		<path fill="none" stroke="#06ADF4" stroke-width="3" stroke-linecap="round" stroke-linejoin="round" d="M110.297,92.252
			c-2.685,1.17-9.518,2.559-13.611,2.807c-1.035,0.037-2.715,0.104-3.826,0.231c-0.164,0.015-0.299,0.038-0.404,0.052"/>
		<path fill="none" stroke="#06ADF4" stroke-width="3" stroke-linecap="round" stroke-linejoin="round" d="M109.397,92.912
			c-1.815,0.689-4.396,1.238-6.683,1.561c-2.805,0.397-9.869,0.938-11.242,1.08c-0.301,0.029-0.533,0.029-0.697,0.008"/>
		<path fill="none" stroke="#06ADF4" stroke-width="3" stroke-linecap="round" stroke-linejoin="round" d="M105.662,93.377
			c-1.822,0.451-8.369,1.801-15.428,2.281c-0.449,0.045-1.867,0.389-1.941,0.389c6.225,0.083,18.84-2.768,19.327-2.917
			c-0.841,0.442-14.535,2.063-15.931,2.386c-1.215,0.293-1.635,0.436-2.744,0.894c0.082,0.104,8.895-1.913,14.01-3.458
			c0.87-0.264,3.84-0.743,4.418-0.87c-0.465-0.009-11.221,1.269-12.938,1.672c-0.038,0.009-0.076,0.017-0.105,0.031
			c1.402,0.021,11.925-1.988,14.564-2.349c0.893-0.121,1.673-0.465,1.809-0.524c0.029-0.017,0.074-0.03,0.135-0.062"/>
		<path fill="none" stroke="#06ADF4" stroke-width="3" stroke-linecap="round" stroke-linejoin="round" d="M121.143,87.445
			c-1.83,1.012-5.385,2.459-5.828,2.646c-0.854,0.339-6.217,1.179-7.199,1.41c5.76-0.412,14.82-4.813,14.85-4.853l-15.045,4.373
			l13.68-3.78c-2.242,0.885-7.643,3.606-8.084,3.795c-1.096,0.45-4.913,1.485-5.378,1.666l12.765-4.726
			c-1.17,0.646-5.4,2.443-6.96,3.051c-1.08,0.414-5.069,1.396-6.135,1.861c1.222-0.391,4.784-1.344,6.532-1.966
			c1.23-0.442,4.68-1.319,7.027-2.864c0.248-0.166,0.211-0.211,0.263-0.293c-1.08,0.646-3.075,1.756-5.813,2.851
			c-3.271,1.208-6.976,1.821-7.274,1.937c-0.045,0.014-0.09,0.045-0.143,0.081c0.6-0.135,1.199-0.271,1.8-0.403
			c0.218-0.045,0.36-0.084,0.412-0.099"/>
		<path fill="none" stroke="#06ADF4" stroke-width="3" stroke-linecap="round" stroke-linejoin="round" d="M122.68,87.46
			c-0.532,0.705-4.402,2.835-8.145,3.899c-0.51,0.143-4.59,1.072-6.75,1.463c-0.113,0.023-0.195,0.029-0.232,0.037"/>
		<path fill="none" stroke="#06ADF4" stroke-width="3" stroke-linecap="round" stroke-linejoin="round" d="M118.832,89.365
			c-0.098,0.098-7.223,3.201-11.595,4.223c-0.263,0.066-2.632,0.359-3.585,0.518c-0.127,0.021-0.21,0.037-0.248,0.045"/>
		<path fill="none" stroke="#06ADF4" stroke-width="3" stroke-linecap="round" stroke-linejoin="round" d="M129.625,81.723
			l0.525-0.533c-0.78,1.125-3.083,2.873-4.343,3.557c-1.681,0.893-5.708,2.102-5.7,2.212c0.645,0.181,1.561-0.337,4.088-1.929
			c1.162-0.727,4.612-2.813,4.567-2.813c-1.598,2.303-8.235,5.889-8.4,6.061l8.423-5.278c-0.495,0.465-3.285,3.11-4.71,3.683
			c-2.407,0.922-7.792,1.979-8.761,2.475l8.851-3.914l-8.806,4.619c0.601-0.144,4.861-1.59,5.25-1.754
			c0.924-0.383,5.348-1.711,6.729-2.963c0.164-0.15,0.307-0.347,0.441-0.586c-0.861,0.563-1.319,0.84-1.642,1.014
			c-0.046,0.021-0.067,0.037-0.083,0.045"/>
		<path fill="none" stroke="#06ADF4" stroke-width="3" stroke-linecap="round" stroke-linejoin="round" d="M132.7,77.425
			c-0.466,1.306-2.505,3.72-3.646,4.5c-1.688,1.05-3.292,2.243-3.314,2.265l6.48-6.479c-1.493,3.148-4.809,5.773-5.326,6.337
			l5.806-5.332c-0.833,2.132-3.96,4.636-4.726,5.188c-0.127,0.092-0.277,0.195-0.441,0.31"/>
		<path fill="none" stroke="#06ADF4" stroke-width="3" stroke-linecap="round" stroke-linejoin="round" d="M134.793,71.537
			c0.75,1.838-2.641,7.777-2.783,7.854l2.415-5.806"/>
		<path fill="none" stroke="#06ADF4" stroke-width="2" stroke-linecap="round" stroke-linejoin="round" d="M134.027,74.32
			c0.495-1.336,0.689-1.98,0.697-2.318c0-0.391-0.008-0.674-0.015-0.869c0-0.016-0.007-0.023-0.007-0.037"/>
		<path fill="none" stroke="#06ADF4" stroke-width="2" stroke-linecap="round" stroke-linejoin="round" d="M134.627,67.743
			c0.518,1.747,0.173,5.032,0.09,5.333c0,0.007,0,0.007,0,0.007l0.061-0.606"/>
		<path fill="none" stroke="#06ADF4" stroke-width="2" stroke-linecap="round" stroke-linejoin="round" d="M134.777,71.146
			c0,0.016,0.016-0.029,0.016-0.045c0.007-1.131,0.104-1.649,0.098-1.635c0.209,1.275,0.09,3.068-0.068,3.615
			c-0.037,0.135-0.09,0.322-0.15,0.563c-0.007,0.017-0.021,0.068-0.014,0.053"/>
		<path fill="none" stroke="#06ADF4" stroke-width="2" stroke-linecap="round" stroke-linejoin="round" d="M135.221,69.955
			c0,1.717-0.166,2.873-0.924,5.271c-0.066,0.219-0.143,0.532-0.232,0.932c-0.015,0.074-0.021,0.119-0.029,0.135"/>
		<path fill="none" stroke="#06ADF4" stroke-width="2" stroke-linecap="round" stroke-linejoin="round" d="M133.96,76.045
			l-3.728,5.303c-0.008-0.037,0.9-1.561,1.575-2.715c1.575-2.348,1.958-3.99,2.101-4.223c-2.521,4.793-6.841,9.682-7.313,10.178
			c-0.166,0.18-0.323,0.359-0.473,0.547"/>
		<path fill="none" stroke="#06ADF4" stroke-width="2" stroke-linecap="round" stroke-linejoin="round" d="M9.1,74.717l9.083,6.113
			c-4.118-1.252-9.915-6.998-9.9-6.982c1.792,1.492,6.982,5.025,7.432,5.272c2.4,1.327,5.423,2.13,5.475,2.175
			c-7.455-3.75-11.865-8.055-11.85-8.04c1.77,2.505,8.423,7.509,9.338,7.731c0-0.156-3.585-2.691-4.508-3.396
			c-1.56-1.191-4.56-4.275-4.755-4.439l8.145,7.08L9.842,72.76c-0.007,0.832,1.47,2.596,3.473,4.395
			c1.388,1.269,4.522,3.99,4.455,3.962l-8.205-6.548c1.14,1.92,9.007,7.236,8.993,7.229l-8.198-5.813l8.61,6.976l-7.433-5.167
			l7.815,4.896l-10.14-7.328l8.498,6.594L9.28,76.15c0.18,0.727,2.25,2.947,4.41,4.154c2.618,1.516,3.135,1.776,3.21,1.846
			l-6.87-4.973c1.335,1.934,7.545,6.081,9.09,6.518l-8.647-6.398l12.682,6.773l-11.782-7.545l10.657,6.981
			c-2.64-1.748-11.272-8.963-12.165-9.795c-0.045-0.045-0.053-0.099-0.053-0.128"/>
		<path fill="none" stroke="#06ADF4" stroke-width="2" stroke-linecap="round" stroke-linejoin="round" d="M11.515,76.705
			l0.022,0.473c-0.353,0.164-2.025-0.885-2.228-1.006c-1.268-0.779-3.27-5.018-3.533-5.451l4.838,6.412
			c0.03,0.082-3.945-3.652-4.695-5.107c-0.308-0.614-0.585-1.305-0.862-2.078c1.357,3.427,5.295,7.477,5.272,7.417
			c-3.78-3.51-4.853-6.428-4.988-6.607c-0.112,0.473,2.325,4.064,2.873,4.852c1.508,2.063,3.188,2.89,3.465,2.963
			c-1.8-1.528-3.323-3.493-4.215-5.526c-0.345-0.787-1.777-3.998-1.942-4.605l4.68,7.027L5.425,67.93l4.905,7.208l-5.055-7.801
			L9.4,74.162c0.158,0.038-2.595-3.705-3.532-4.62c-0.255-0.24-0.443-0.3-0.645-0.308c0.375,2.565,3.51,6.937,4.035,7.433
			c1.005-0.067-3.563-5.701-4.342-6.608c0.03,1.412,4.785,6.052,4.942,5.813c0.488-0.826-3.802-5.761-4.215-6.173l3.938,5.13
			l-3.143-4.897l2.88,4.409l-2.19-4.259c0.442,1.964,3.938,4.943,4.027,4.927L6.91,69.033l4.74,5.542l-4.875-5.843
			c-0.052,0.18,1.44,2.409,3.18,4.793c0.607,0.832,1.41,1.957,1.433,1.979c0.037,0.053,0.075,0.098,0.112,0.143"/>
		<path fill="none" stroke="#06ADF4" stroke-width="2" stroke-linecap="round" stroke-linejoin="round" d="M5.71,71.537
			c-0.03-0.225-1.11-3.495-1.005-5.722c0.03-0.705,0.285-2.107,0.322-2.183l0.405,7.321c-1.635-3.668-0.12-8.768-0.248-9.428
			c-1.058,3.022-1.462,4.763-0.765,7.77c-0.922-1.68,0.578-8.498,0.893-9.255l-1.185,5.565l1.868-6.165
			c-0.63,1.718-1.365,5.175-1.073,7.192c0.173,1.17,0.607,2.993,0.66,2.985l0.158-8.183l0.63,8.317l-0.675-6.765l1.568,9.098
			L5.178,65.05l3.262,8.333l-2.782-7.71l1.605,7.462L5.23,66.573c-0.075,0.622,0.03,1.732,0.337,3.3
			c0.053,0.263,0.113,0.54,0.188,0.833"/>
		<path fill="none" stroke="#06ADF4" stroke-width="2" stroke-linecap="round" stroke-linejoin="round" d="M5.417,64.435
			C5.275,64,5.695,62.26,5.77,61.855c0.09-0.232,0.645-2.265,0.675-2.498l-1.605,4.95L5.297,60.1l-0.075,0.172"/>
		<path fill="none" stroke="#06ADF4" stroke-width="2" stroke-linecap="round" stroke-linejoin="round" d="M3.58,65.522
			c-0.06-0.322,0.667-2.58,1.14-3.998c0.42-1.395,0.675-2.1,0.96-2.632c0.052-0.098,0.105-0.188,0.157-0.278
			c0.015-0.022,0.022-0.03,0.022-0.037"/>
		<path fill="none" stroke="#06ADF4" stroke-width="2" stroke-linecap="round" stroke-linejoin="round" d="M3.985,63.625
			c0.158-0.66,0.728-2.145,1.305-3.188c0.27-0.487,2.34-3.54,2.625-4.058c0.038-0.075,0.052-0.105,0.038-0.097"/>
		<path fill="none" stroke="#06ADF4" stroke-width="2" stroke-linecap="round" stroke-linejoin="round" d="M4.99,60.978l3.217-5.475
			l-0.255,0.42"/>
		<path fill="none" stroke="#06ADF4" stroke-width="2" stroke-linecap="round" stroke-linejoin="round" d="M4.953,60.243
			c0.487-0.795,0.96-1.5,1.815-2.67c0.855-1.17,1.08-1.493,1.515-2.13c0.03-0.045,0.045-0.067,0.045-0.052"/>
		<path fill="none" stroke="#06ADF4" stroke-linecap="round" d="M40.967,87.543c3.015-4.238,6.585-4.208,8.708-3.743
			c4.673,1.028,5.303,6.63,5.138,7.478"/>
		<path fill="none" stroke="#06ADF4" stroke-linecap="round" d="M39.79,92.561c0.007,4.664,2.175,6.771,5.947,7.313
			c2.663,0.382,5.73-0.548,8.325-3.812"/>
		<path fill="none" stroke="#06ADF4" stroke-linecap="round" d="M49.375,97.787"/>
		<path fill="none" stroke="#06ADF4" stroke-width="6" stroke-linecap="round" stroke-linejoin="round" d="M50.215,90.415
			l0.42-0.285c0.165-1.56-1.132-2.34-1.44-2.468c2.115,1.838,1.627,4.41,1.665,4.673c0.33-0.075,0.998-0.981,0.638-2.349
			c-0.098-0.375-0.615-1.762-0.652-1.881l1.267,3.164c0.195-0.787-0.285-2.498-0.81-3.285c-0.803-1.146-4.575-0.098-5.033,0.488
			c-0.54,0.733-0.045,2.174,0.458,2.332c0.532,0.143,1.695-0.248,2.047-0.646c0.337-0.437,0.098-2.634-0.697-3.165
			c-0.743-0.473-2.325-0.202-3.127,0.503c-0.667,0.606-1.808,1.957-1.823,1.94c-0.322-1.08,0.728-1.965,1.125-2.219l-1.313,1.463
			c0.3-0.264,2.393-1.846,2.482-1.906c0.525-0.358,2.828-0.494,3.615-0.18c0.277,0.119,0.915,0.787,0.915,0.779
			c-0.765-0.742-2.288-1.236-2.843-0.943c-0.78,0.435-1.305,1.356-1.357,1.506c0.382-0.848,1.35-1.461,2.692-1.102
			c-2.01-1.471-2.782,0.803-2.782,0.795c1.215-1.5,2.145-0.803,2.22-0.697c-0.645-0.524-1.455-0.832-1.785-0.606
			c-0.9,0.637-1.178,1.198-1.2,1.387c0.06,0.12,1.41-1.125,2.737-1.147c0.39-0.006,1.125,0.309,1.62,0.549l-0.667-0.488l1.11,0.105
			l-0.922-0.062l1.478,0.812l-0.098,0.127"/>
		<path fill="none" stroke="#06ADF4" stroke-width="6" stroke-linecap="round" stroke-linejoin="round" d="M50.027,88.607
			c0.87-0.397,2.153,2.459,2.16,3.638l-0.667-3.57l1.35,3.255l-1.62-4.191c1.087,0.367,1.192,3.082,1.163,3.486L50.98,87.67
			c0.36,0.578,0.69,1.186,0.833,1.553c0.12,0.322,0.217,0.75,0.24,0.998"/>
		<path fill="none" stroke="#06ADF4" stroke-width="6" stroke-linecap="round" stroke-linejoin="round" d="M47.672,86.223l2.76,1.08
			l-1.837-0.098c1.62-0.113,2.025,0.607,2.002,0.906l-1.403-1.266c0.728-0.818,1.627,0.555,1.613,0.809l-1.417-0.531l1.252,0.164
			c-0.908,0.779-1.567-0.555-1.598-0.721c0.908-1.351,1.598,0.789,1.56,0.826l-0.833-0.017l0.607-0.474l0.533,0.602l-1.41-0.33
			l0.69-0.585l0.27,0.78l-1.02-0.008c-0.225-0.367,0.758-0.952,0.885-0.037l-0.825,0.246l1.08-0.021l0.067,0.811
			c-0.12-0.104,0.12-1.688-1.958-1.664c-0.353,0.015-0.84,0.555-0.817,0.832l0.982-0.766l1.065,0.586l-0.847-1.142l-1.448,0.532
			l1.8,0.556"/>
		<path fill="none" stroke="#06ADF4" stroke-width="6" stroke-linecap="round" stroke-linejoin="round" d="M47.853,86.447
			c0.015-0.247-1.41-0.367-2.212,0.045c-0.413,0.225-1.485,1.484-1.478,1.479l2.887-1.576c-1.56-0.606-3.24,0.885-3.87,1.695
			c0.112,0,2.407-1.08,2.813-0.951c0.952,0.344,1.552,0.674,1.545,0.666c-0.158-0.457,0.788-1.859,2.445-0.06
			c0.315,0.353,0.465,0.87,0.488,1.05"/>
		<path fill="none" stroke="#06ADF4" stroke-width="6" stroke-linecap="round" stroke-linejoin="round" d="M45.415,86.043
			l2.475,0.061l-3.075,1.004c0.083,0.127,1.86-0.51,2.317-0.457c1.298,0.172,2.063,0.849,2.093,0.841
			c-0.135-0.263-1.53-0.931-1.357-1.207c0.405-0.525,1.755,0.217,1.792,0.276l-3.158-0.412c0.263,0.074,2.22-0.104,2.7,0.291
			c0.03,0.023,0.045,0.045,0.06,0.068L47.8,85.855c1.185-0.474,1.635,0.494,1.628,0.523l-0.458,0.038"/>
		<path fill="none" stroke="#06ADF4" stroke-width="6" stroke-linecap="round" stroke-linejoin="round" d="M47.575,97.127
			c0-0.577,0.232-2.242,0.24-3.066c0-0.75-0.292-1.125-0.495-1.252c-1.095,0.539-1.005,3.111-0.81,3.457
			c0.773,0.209,2.138-1.147,2.34-1.771c0.143-0.54-0.135-1.567-0.51-1.83c-0.39-0.255-1.522-0.144-2.092,0.194
			c-0.607,0.383-1.462,1.979-1.515,2.774c0.285,0.503,1.328,0.587,1.755-0.067c0.203-0.344-0.6-1.821-1.567-1.941
			c-2.183-0.203-1.71,2.168-1.215,2.55l-0.84-3.21c-0.023,0.277-0.345,1.748-0.248,2.025c0.127,0.33,1.545,1.807,2.55,1.949
			c0.51,0.067,1.462-0.053,1.808-0.045c1.47-0.029,4.208-3.194,3.998-4.088c-0.195-0.629-2.002,0.639-2.633,1.987
			c-0.367,0.817-0.57,1.867-0.157,2.151c0.728,0.466,2.22-0.441,2.768-1.049c0.555-0.684,0.667-1.381,0.645-2.514l-0.735,2.662
			l1.08-2.219c-0.578,1.326-3.405,3.847-5.43,4.012c-0.735,0.045-2.077-0.262-2.392-0.563c-0.323-0.322-0.84-1.297-0.593-2.596
			c0.09-0.457,0.375-1.027,0.667-1.492"/>
		<path fill="none" stroke="#06ADF4" stroke-width="3" stroke-linecap="round" d="M24.678,72.925
			c-6.848,8.49-7.815,13.673-8.378,17.386c-0.877,5.744,0.143,9.556,2.693,12.449c1.732,1.973,4.095,3.555,7.103,4.125
			c5.708,1.08,11.355,1.133,18.555-0.345c3.81-0.78,7.837-1.913,11.978-3.36c2.01-0.697,4.042-1.47,6.09-2.316
			c1.86-0.758,3.728-1.584,5.595-2.452c6.473-3.017,12.967-6.66,19.133-10.777c3.877-2.588,7.65-5.378,11.227-8.286
			c2.604-2.115,5.094-4.307,7.455-6.533c1.628-1.545,3.195-3.105,4.681-4.681c5.325-5.647,9.646-11.445,12.42-17.032
			c2.61-5.243,3.854-10.298,3.292-14.835c-0.396-3.195-1.688-6.127-4.027-8.708c-1.912-2.115-4.537-3.99-7.949-5.558"/>
		<path fill="none" stroke="#06ADF4" stroke-width="3" stroke-linecap="round" d="M17.125,85.84
			c-0.998,3.061-1.627,6.203-1.95,9.893c-0.532,6.037,0.772,8.326,3.397,11.34c1.793,2.056,4.958,3.886,8.055,4.479
			c5.88,1.125,9.15,1.254,16.567-0.283c3.923-0.812,9.885-2.25,14.153-3.75c2.07-0.736,4.162-1.539,6.277-2.416
			c1.913-0.795,3.833-1.649,5.76-2.558c6.668-3.144,13.365-6.938,19.711-11.229c3.996-2.698,7.882-5.602,11.564-8.64
			c2.678-2.204,5.25-4.485,7.68-6.81c1.68-1.605,3.293-3.232,4.822-4.875c5.49-5.88,9.938-11.925,12.795-17.738
			c2.693-5.467,3.976-10.732,3.391-15.465c-0.405-3.323-1.74-6.383-4.147-9.067c-1.973-2.205-5.37-4.035-8.888-5.67"/>
		<path fill="none" stroke="#06ADF4" stroke-width="3" stroke-linecap="round" stroke-linejoin="round" d="M39.467,109.63l12.12-2.7
			l-12.09,3.623c3.022,1.141,14.145-2.744,14.25-2.753l-11.115,2.138l11.663-3.688l-14.242,3.524l14.332-4.381
			c-2.775-0.358-13.012,3.248-13.695,3.346c0.038,0.015,9.99-2.311,14.205-3.309c2.37-0.525,4.268-1.305,5.4-1.912l-11.52,4.463
			c2.002,1.186,12.255-4.192,12.817-4.492l-9.622,4.229c4.68,0.105,11.347-4.507,11.572-4.635l-10.507,4.868l12.6-5.325
			L54.4,107.703c2.505-0.676,11.01-3.977,12.225-4.861c0.27-0.201,3.06-2.332,3.06-2.414l-7.08,3.157l6.007-3.271l-8.595,3.99
			l7.417-4.207l-14.13,5.58c0.6,0.045,9.795-3.451,11.91-4.906c0.158-0.111,0.24-0.172,0.255-0.188
			c-0.083-0.227-14.07,5.212-14.933,5.423c-0.15,0.029-0.292,0.067-0.442,0.099"/>
		<path fill="none" stroke="#06ADF4" stroke-width="3" stroke-linecap="round" stroke-linejoin="round" d="M66.565,102.25
			c0.03-0.075,2.16-0.87,2.67-1.146c1.125-0.631,3.023-1.224,5.828-3.031c0.172-0.118,0.615-0.396,1.02-0.84l-8.834,5.078
			l7.477-3.713l0.615-0.615l-6.48,3.232l10.868-6.428l-10.89,5.559l9.991-5.865l-14.168,7.125l12.172-6.211l-11.077,4.562
			l8.595-3.563l-9.952,5.633c1.56,0.57,19.155-9.383,19.208-9.473"/>
		<path fill="none" stroke="#06ADF4" stroke-width="3" stroke-linecap="round" stroke-linejoin="round" d="M69.1,102.047
			c0.232,0.023,0.592-0.097,1.132-0.404c3.232-1.858,10.215-5.543,18.248-12.404c0.457-0.391,1.702-1.575,1.619-1.537
			c-0.539,0.292-6.682,5.197-10.462,7.439c-0.067,0.037-5.61,2.909-5.573,3.037c0.264,0.029,7.583-4.027,10.455-6.24
			c0.045-0.045,0.09-0.082,0.135-0.119l-9.021,6.127c0.008,0.009,5.287-2.25,7.192-4.026c0.075-0.067,0.271-0.239,0.577-0.503"/>
		<path fill="none" stroke="#06ADF4" stroke-width="3" stroke-linecap="round" stroke-linejoin="round" d="M76.263,98.328
			c0.75-0.301,7.079-3.833,9.128-5.107c0.396-0.203,3.149-2.611,4.867-3.863c0.188-0.135,0.412-0.313,0.675-0.539
			c0.188-0.166,0.382-0.33,0.569-0.496"/>
		<path fill="none" stroke="#06ADF4" stroke-width="3" stroke-linecap="round" stroke-linejoin="round" d="M84.686,92.439
			c1.35-0.614,7.762-5.549,9.098-7.049c0.09-0.105,0.135-0.182,0.127-0.211c-0.12,0.42-1.905,2.024-3.953,3.682
			c-1.672,1.344-6.082,4.179-6.074,4.172l9.982-7.711L86.237,90.7l8.032-6.429c-2.52,1.576-8.857,5.902-11.22,7.373
			c-0.524,0.354-6.353,3.51-6.638,3.758l10.283-6.127l-10.763,6.869l17.085-11.011l-9.585,6.511l9.427-6.111
			c-1.927,0.898-10.334,6.898-12.689,8.145c-2.58,1.327-5.873,3.008-6.188,3.164l7.388-4.762l-9.601,5.775l10.208-5.025
			c-0.944,0.396-3.128,2.939-3.803,3.354c-4.103,2.422-4.396,2.813-4.372,2.851l11.737-7.906
			c-0.615,0.188-11.205,5.753-12.323,6.442c-0.576,0.359-1.162,0.721-1.739,1.072c-0.413,0.271-0.825,0.532-1.245,0.795"/>
		<path fill="none" stroke="#06ADF4" stroke-width="3" stroke-linecap="round" stroke-linejoin="round" d="M110.471,70.893
			c-0.008,0.008-6.758,6-9.031,8.16c-0.629,0.6-4.529,3.51-4.477,3.442c3.479-2.438,12.24-8.647,15.539-13.448
			c-1.68,1.005-15.465,12.66-15.614,12.736c-0.083,0.045-0.202,0.119-0.353,0.225"/>
		<path fill="none" stroke="#06ADF4" stroke-width="3" stroke-linecap="round" stroke-linejoin="round" d="M112.391,67.638
			c-0.338,0.435-0.908,1.095-1.261,1.44c-1.319,1.132-4.042,3.674-7.867,6.869c-0.683,0.607-1.546,1.389-1.995,1.748
			c-0.075,0.061-0.18,0.15-0.314,0.263"/>
		<path fill="none" stroke="#06ADF4" stroke-width="3" stroke-linecap="round" stroke-linejoin="round" d="M109.87,71.463
			c-0.728,0.854-1.208,1.553-1.396,1.74c-2.242,2.205-9.727,8.092-10.89,8.917c-0.188,0.128-0.54,0.366-1.072,0.72"/>
		<path fill="none" stroke="#06ADF4" stroke-width="3" stroke-linecap="round" stroke-linejoin="round" d="M110.755,71.207
			c-0.239,0.218-1.515,2.176-2.685,3.42c-0.961,1.006-7.268,6.121-7.973,6.541c-0.143,0.09-0.391,0.254-0.75,0.494"/>
		<path fill="none" stroke="#06ADF4" stroke-width="3" stroke-linecap="round" stroke-linejoin="round" d="M110.763,71.71
			c-0.435,0.33-7.343,7.5-9.854,9.382c-0.549,0.406-2.775,2.131-3.368,2.551c-0.667,0.474-2.198,1.313-2.618,1.492
			c-0.066,0.023-0.127,0.045-0.18,0.061"/>
		<path fill="none" stroke="#06ADF4" stroke-width="3" stroke-linecap="round" stroke-linejoin="round" d="M105.123,77.402
			c-0.705,0.75-3.211,3.488-4.11,4.096c-0.9,0.607-4.688,3.337-4.695,3.352c3.12-1.356,9.982-8.781,11.077-10.027
			c-0.007,0-8.393,5.837-8.97,6.24c-1.013,0.689-2.415,1.644-2.97,2.139c-0.037,0.037-0.067,0.074-0.105,0.104"/>
		<path fill="none" stroke="#06ADF4" stroke-width="3" stroke-linecap="round" stroke-linejoin="round" d="M102.175,77.402
			c-0.09-0.008-1.507,1.298-2.107,1.83c-1.522,1.373-3.772,3.09-4.694,3.959c-0.66,0.631-1.11,1.006-1.553,1.328"/>
		<path fill="none" stroke="#06ADF4" stroke-width="3" stroke-linecap="round" stroke-linejoin="round" d="M100.766,79.367
			l-12.428,9.391l14.055-10.117c-0.668,0.248-8.58,7.784-12.84,10.688c-0.773,0.51-1.756,1.162-1.867,1.28
			c0.816-0.045,3.143-1.477,5.691-3.493c1.021-0.854,5.73-5.183,6.181-5.513c-0.015-0.016-1.575,1.875-4.08,3.719
			c-2.678,2.025-7.995,5.902-7.973,5.955c1.628-0.877,2.647-1.611,6.06-4.401c0.818-0.668,3.623-2.955,5.656-5.069
			c0.127-0.136,0.254-0.263,0.382-0.396"/>
		<path fill="none" stroke="#06ADF4" stroke-width="3" stroke-linecap="round" stroke-linejoin="round" d="M119.904,58.75
			c-1.799,3.75-8.309,9.87-11.489,13.162l12.045-11.647l-12.21,11.04l10.928-10.918c-5.123,7.087-11.355,13.258-12.721,14.713
			c0.548-0.225,0.998-0.711,1.568-1.425c0.045-0.052,0.082-0.104,0.127-0.157"/>
		<path fill="none" stroke="#06ADF4" stroke-width="3" stroke-linecap="round" stroke-linejoin="round" d="M119.492,60.783
			c-0.652,1.245-1.68,3-3.262,4.83c-0.923,1.073-2.648,2.693-3.264,3.353c-0.524,0.548-1.739,2.04-2.399,2.61
			c-0.075,0.066-0.112,0.104-0.12,0.111"/>
		<path fill="none" stroke="#06ADF4" stroke-width="3" stroke-linecap="round" stroke-linejoin="round" d="M119.965,60.752
			c-1.402,2.73-3.525,5.175-4.672,6.525c-2.048,2.25-6.045,5.655-6.818,6.428c-0.112,0.111-0.202,0.21-0.27,0.293"/>
		<path fill="none" stroke="#06ADF4" stroke-width="3" stroke-linecap="round" stroke-linejoin="round" d="M119.695,61.802
			c-0.945,1.628-2.588,3.615-4.133,5.258c-1.912,2.01-7.02,6.75-7.987,7.695c-0.218,0.21-0.397,0.353-0.532,0.435"/>
		<path fill="none" stroke="#06ADF4" stroke-width="3" stroke-linecap="round" stroke-linejoin="round" d="M117.123,64.435
			c-1.118,1.455-5.288,6.473-10.44,11.161c-0.323,0.307-1.185,1.439-1.245,1.484c4.867-3.758,12.75-13.62,13.035-14.025
			c-0.36,0.84-9.885,10.44-10.748,11.542c-0.758,0.959-0.99,1.326-1.553,2.354c0.136,0.028,5.641-6.901,8.58-11.19
			c0.503-0.728,2.476-2.903,2.844-3.353c-0.361,0.277-7.838,7.815-8.903,9.165c-0.022,0.037-0.045,0.066-0.06,0.097
			c2.122-1.679,10.185-11.159,10.35-11.392c0.098-0.15,0.353-0.652,0.42-0.78c0.016-0.03,0.037-0.075,0.068-0.127"/>
		<path fill="none" stroke="#06ADF4" stroke-width="3" stroke-linecap="round" stroke-linejoin="round" d="M125.186,50.522
			c-1.238,2.962-3.181,6.225-3.24,6.3c-0.541,0.652-3.541,3.922-4.155,4.695c4.17-3.817,8.28-12.653,8.28-12.698l-8.738,12.458
			l8.078-11.175c-1.155,2.033-3.54,7.365-3.758,7.777c-0.547,1.005-2.82,4.118-3.061,4.538l6.758-11.34
			c-0.479,1.2-2.564,5.13-3.375,6.54c-0.563,0.967-3,4.14-3.51,5.137c0.683-1.035,2.805-3.93,3.75-5.467
			c0.66-1.08,2.745-3.84,3.548-6.428c0.083-0.277,0.022-0.285,0.015-0.382c-0.42,1.14-1.23,3.195-2.625,5.685
			c-1.732,2.902-4.186,5.625-4.342,5.887c-0.023,0.045-0.045,0.09-0.068,0.15c0.383-0.465,0.758-0.93,1.133-1.403
			c0.135-0.165,0.225-0.277,0.255-0.322"/>
		<path fill="none" stroke="#06ADF4" stroke-width="3" stroke-linecap="round" stroke-linejoin="round" d="M126.377,49.607
			c0.045,0.855-1.545,4.815-3.734,7.897c-0.293,0.413-2.835,3.607-4.245,5.212c-0.075,0.09-0.128,0.143-0.157,0.173"/>
		<path fill="none" stroke="#06ADF4" stroke-width="3" stroke-linecap="round" stroke-linejoin="round" d="M124.652,53.38
			c-0.008,0.135-3.473,6.818-6.18,10.252c-0.158,0.21-1.801,1.875-2.423,2.58c-0.09,0.098-0.142,0.158-0.165,0.188"/>
		<path fill="none" stroke="#06ADF4" stroke-width="3" stroke-linecap="round" stroke-linejoin="round" d="M127.99,41.058
			l0.067-0.72c0.128,1.328-0.511,4.035-1.035,5.317c-0.712,1.695-3.022,5.055-2.947,5.13c0.614-0.248,0.982-1.2,1.897-3.938
			c0.42-1.252,1.717-4.92,1.688-4.897c0.262,2.708-2.513,9.458-2.527,9.682l3.045-9.105c-0.075,0.653-0.51,4.35-1.23,5.64
			c-1.252,2.16-4.71,6.232-5.13,7.192l4.268-8.333l-3.78,8.843c0.367-0.473,2.708-4.163,2.902-4.515c0.465-0.855,3-4.538,3.248-6.33
			c0.029-0.21,0.016-0.45-0.037-0.705c-0.301,0.945-0.465,1.44-0.607,1.763c-0.016,0.038-0.031,0.067-0.031,0.083"/>
		<path fill="none" stroke="#06ADF4" stroke-width="3" stroke-linecap="round" stroke-linejoin="round" d="M127.57,35.942
			c0.494,1.268,0.487,4.335,0.112,5.61c-0.607,1.823-1.065,3.69-1.065,3.728l0.773-8.835c0.899,3.292,0.045,7.283,0.014,8.025
			l1.006-7.553c0.742,2.115-0.037,5.902-0.27,6.795c-0.038,0.143-0.083,0.308-0.143,0.495"/>
		<path fill="none" stroke="#06ADF4" stroke-width="3" stroke-linecap="round" stroke-linejoin="round" d="M125.357,30.22
			c1.77,0.938,3.016,7.485,2.955,7.627l-1.904-5.85"/>
		<path fill="none" stroke="#06ADF4" stroke-width="2" stroke-linecap="round" stroke-linejoin="round" d="M126.58,32.792
			c-0.488-1.313-0.75-1.92-0.968-2.183c-0.247-0.292-0.442-0.502-0.577-0.645c-0.008-0.007-0.022-0.022-0.03-0.03"/>
		<path fill="none" stroke="#06ADF4" stroke-width="2" stroke-linecap="round" stroke-linejoin="round" d="M122.77,27.445
			c1.538,1.013,3.405,3.705,3.533,3.99h0.008l-0.354-0.495"/>
		<path fill="none" stroke="#06ADF4" stroke-width="2" stroke-linecap="round" stroke-linejoin="round" d="M125.096,29.935
			c0.014,0.007-0.008-0.03-0.016-0.045c-0.734-0.863-0.99-1.32-0.982-1.298c0.99,0.84,2.055,2.265,2.287,2.775
			c0.061,0.127,0.143,0.3,0.248,0.518c0.008,0.021,0.029,0.067,0.021,0.052"/>
		<path fill="none" stroke="#06ADF4" stroke-width="2" stroke-linecap="round" stroke-linejoin="round" d="M124.66,28.757
			c1.117,1.305,1.74,2.28,2.715,4.56c0.09,0.203,0.232,0.488,0.428,0.848c0.029,0.06,0.053,0.098,0.06,0.12"/>
		<path fill="none" stroke="#06ADF4" stroke-width="2" stroke-linecap="round" stroke-linejoin="round" d="M127.645,34.135
			l0.57,6.27c-0.029-0.022-0.314-1.725-0.547-3c-0.309-2.737-1.08-4.215-1.118-4.478c1.171,5.153,1.021,11.475,0.983,12.135
			c-0.016,0.232-0.016,0.465-0.016,0.698"/>
		<path fill="none" stroke="#06ADF4" stroke-width="2" stroke-linecap="round" stroke-linejoin="round" d="M29.027,110.027
			l11.333-1.035c-4.11,1.628-12.592,0.878-12.57,0.878c2.438,0.015,8.94-0.548,9.465-0.638c2.798-0.496,5.738-1.777,5.805-1.771
			c-8.438,1.808-14.843,1.289-14.828,1.289c3.098,0.812,11.752,0.451,12.63,0.045c-0.112-0.118-4.65,0.195-5.865,0.24
			c-2.04,0.062-6.502-0.404-6.772-0.404l11.242,0.292l-11.16-0.861c0.555,0.645,2.917,1.063,5.715,1.17
			c1.958,0.104,6.277,0.209,6.203,0.231l-10.928,0.158c2.205,0.741,12.03-0.144,12.008-0.136L30.88,110.2l11.535-0.083l-9.375,0.721
			l9.495-1.163l-12.982,0.772l11.182-0.307l-10.597,0.86c0.63,0.442,3.825,0.854,6.3,0.405c1.53-0.239,3.728-0.622,3.788-0.614
			l-8.805,0.524c6.105,1.83,11.482-0.69,11.603-0.735l-11.167,0.548c2.28,1.051,13.995-2.533,14.618-2.79l-14.415,1.644
			l13.155-1.365c-6.833,0.758-16.012,0.173-16.245,0.158c-0.067,0-0.112-0.039-0.135-0.062"/>
		<path fill="none" stroke="#06ADF4" stroke-width="2" stroke-linecap="round" stroke-linejoin="round" d="M32.29,110.027
			l0.33,0.346c-0.165,0.344-2.205,0.592-2.453,0.629c-1.53,0.203-5.978-1.777-6.487-1.941l8.182,1.853
			c0.083,0.045-5.603-0.308-7.185-0.945c-0.66-0.276-1.35-0.629-2.093-1.042c3.397,1.756,9.263,2.379,9.203,2.348
			c-5.377-0.308-8.198-1.859-8.422-1.912c0.225,0.436,4.59,1.643,5.557,1.906c2.587,0.621,4.485,0.193,4.755,0.073
			c-2.49-0.036-4.995-0.577-7.08-1.562c-0.803-0.389-4.11-1.94-4.658-2.301l8.468,2.422l-8.888-2.752l8.775,2.422l-9.292-2.782
			l7.89,2.625c0.15-0.074-4.56-1.199-5.933-1.306c-0.36-0.028-0.555,0.045-0.72,0.166c2.025,1.726,7.477,3.098,8.22,3.143
			c0.765-0.684-6.675-2.115-7.913-2.325c0.975,1.063,7.897,1.62,7.86,1.343c-0.158-0.938-6.908-2.011-7.515-2.07l6.592,1.449
			l-5.805-1.771l5.272,1.566l-4.62-1.883c1.68,1.223,6.465,1.305,6.533,1.238l-7.418-1.904l7.523,1.26l-7.83-1.402
			c0.083,0.165,2.775,0.938,5.768,1.656c1.042,0.264,2.445,0.615,2.475,0.615c0.068,0.017,0.127,0.029,0.188,0.045"/>
		<path fill="none" stroke="#06ADF4" stroke-width="2" stroke-linecap="round" stroke-linejoin="round" d="M24.175,109.729
			c-0.165-0.158-3.232-1.979-4.657-3.744c-0.45-0.563-1.192-1.791-1.208-1.875l5.257,5.349c-3.788-1.785-6.015-6.629-6.563-7.058
			c1.192,2.978,2.048,4.561,4.635,6.42c-0.585-0.217-2.82-2.399-3.75-4.057c-0.397-0.744-1.493-2.693-1.785-3.578l2.813,5.002
			l-2.67-5.888c0.652,1.71,2.4,4.815,3.998,6.181c0.93,0.771,2.505,1.896,2.535,1.859l-5.385-6.354l6.105,5.964l-5.092-4.747
			l7.387,5.962l-6.413-4.065l8.22,4.32l-7.417-4.141l6.308,4.688l-6.045-3.734c0.36,0.525,1.2,1.306,2.498,2.312
			c0.218,0.164,0.458,0.345,0.713,0.519"/>
		<path fill="none" stroke="#06ADF4" stroke-width="2" stroke-linecap="round" stroke-linejoin="round" d="M19.158,104.479
			c-0.405-0.24-1.245-1.838-1.455-2.19c-0.09-0.231-1.02-2.138-1.147-2.332l2.055,4.793l-2.475-3.503l0.053,0.18"/>
		<path fill="none" stroke="#06ADF4" stroke-width="2" stroke-linecap="round" stroke-linejoin="round" d="M18.422,106.473
			c-0.27-0.218-1.208-2.4-1.785-3.771c-0.608-1.335-0.878-2.04-1.013-2.618c-0.022-0.11-0.045-0.217-0.06-0.313
			c0-0.031-0.007-0.045-0.007-0.045"/>
		<path fill="none" stroke="#06ADF4" stroke-width="2" stroke-linecap="round" stroke-linejoin="round" d="M17.47,104.764
			c-0.33-0.609-0.87-2.102-1.11-3.256c-0.112-0.541-0.518-4.178-0.645-4.756c-0.015-0.082-0.03-0.111-0.03-0.104"/>
		<path fill="none" stroke="#06ADF4" stroke-width="2" stroke-linecap="round" stroke-linejoin="round" d="M16.48,102.1
			l-1.125-6.209l0.083,0.486"/>
		<path fill="none" stroke="#06ADF4" stroke-width="2" stroke-linecap="round" stroke-linejoin="round" d="M15.962,101.566
			c-0.157-0.914-0.255-1.754-0.36-3.18c-0.105-1.433-0.135-1.822-0.225-2.588c-0.007-0.052-0.007-0.074,0-0.066"/>
		<path fill="none" stroke="#06ADF4" stroke-linecap="round" d="M125.95,37.712c0,0-6.255-1.095-8.505,4.425
			c-1.479,3.615-0.6,8.857,5.872,10.612"/>
		<path fill="none" stroke="#06ADF4" stroke-linecap="round" d="M122.439,47.808l-1.319,2.527"/>
		<path fill="none" stroke="#06ADF4" stroke-linecap="round" d="M126.828,52.855"/>
		<path fill="none" stroke="#06ADF4" stroke-linecap="round" d="M129.46,42.43"/>
		<path fill="none" stroke="#06ADF4" stroke-linecap="round" d="M129.686,38.373c6.689,4.058,4.274,14.813-3.953,14.813"/>
		<path fill="none" stroke="#06ADF4" stroke-width="6" stroke-linecap="round" stroke-linejoin="round" d="M130.127,46.007
			l0.076-0.345c0.09,2.512-1.065,4.11-1.936,4.567c-0.21,0.112-0.578,0.322-1.125,0.51l-1.088-0.315l2.482-0.9l-2.287,1.035
			c-0.075,0.458,0.758,0.397,1.838-0.06c1.432-0.638,2.752-2.558,3.135-3.675c0.502-1.545-0.42-3.975-0.735-4.44
			c-0.646-0.938-1.388-1.133-1.5-1.215c0.046-0.217,1.065,0.413,1.171,0.803c0.037,0.135,0.127,0.54,0.277,1.208l-1.628-2.175
			c1.027-0.12,1.673,2.55,1.575,3.195c-0.023,0.135-0.135,0.51-0.188,0.757"/>
		<path fill="none" stroke="#06ADF4" stroke-width="6" stroke-linecap="round" stroke-linejoin="round" d="M123.888,50.365
			l0.075,0.188c-0.458-0.022-2.107-0.862-3.51-2.52c-0.533-0.63-0.323-3.12,0.262-3.533l2.738,5.618
			c-1.973-0.99-3.016-2.603-3.264-3.038c-0.285-0.502-0.457-2.752-0.045-3.69c0.232-0.495,1.373-1.973,1.764-2.033
			c0.734-0.105,1.222-0.083,1.35,0.038c0.098,0.188-0.488,2.445-0.548,2.842c-0.128,0.758,0.375,2.843,0.705,3.292
			c0.353,0.443,1.17,0.473,1.417,0.038c0.33-0.63,0.593-2.64,0.473-3.405c-0.127-0.705-0.9-1.365-1.47-1.343
			c-0.413,0.038-1.035,0.833-1.095,1.103c-0.45,2.385,1.005,3.27,1.35,3.338c0.555-0.188,1.275-1.223,1.568-3.225
			c0.111-0.9-0.451-2.43-1.141-2.783c-0.63-0.292-1.32-0.255-1.613,0.645c-0.156,0.563,1.014,0.555,2.431-0.533l0.854,0.18
			c-0.135-1.365-1.965-1.433-2.736-0.788l2.699-0.39c-0.772-0.503-4.027,0.21-4.147,1.313l1.942-1.05
			c-0.352-0.322-2.324,0.045-2.588,0.255c-0.914,0.772-1.379,1.935-1.395,2.137c0.263,0,1.65-2.385,2.048-2.715
			c0.322-0.255,3.54-1.268,3.6-0.893c-0.06,0.067-1.875,0.78-2.662,1.305c-1.058,0.72-1.942,2.295-2.011,2.407
			c-0.816,1.395-0.854,2.603-0.854,2.595l0.78-3.397c-0.023-0.038-2.078,0.09-1.365,3.9l1.395-3.645
			c-0.518,0.27-1.41,1.515-1.521,2.565c-0.121,1.335,2.302,4.035,2.715,4.425"/>
		<path fill="none" stroke="#06ADF4" stroke-width="6" stroke-linecap="round" stroke-linejoin="round" d="M124.54,49.885
			l-0.487-0.646c-0.945-0.09-2.1-0.217-2.843-0.337c-0.51-0.067-1.245-0.78-1.612-1.688c-0.218-0.54-0.098-1.935,0.217-3.39
			c0.031,0.083-0.232,0.967-0.119,1.365c0.869,2.865,2.362,4.073,2.557,4.26l1.883,0.54"/>
		<path fill="none" stroke="#06ADF4" stroke-width="6" stroke-linecap="round" stroke-linejoin="round" d="M125.35,41.552
			c-0.33-0.427-2.137-0.277-3.127,0.293c-1.117,0.69-2.415,3.825-2.423,4.08c-0.037,1.073,1.493,3.263,1.8,3.57
			c0.84,0.788,2.229,0.18,2.235,0.157c0.194,0.285-2.835,1.335-3.907-2.797c-0.398-1.59,0.255-3.105,1.252-4.118
			c-0.532,2.018-0.518,3.068-0.18,4.238c0.217,0.757,1.17,2.797,1.65,3.232c0.584,0.502,1.875,0.69,2.182,0.645
			c0.121-0.015,0.315-0.083,0.578-0.203"/>
		<path fill="none" stroke="#0085A6" stroke-linecap="round" d="M97.668,42.295"/>
		<path fill="none" stroke="#0085A6" stroke-width="3" stroke-linecap="round" d="M87.85,116.521
			c9.878,6.166,14.985,6.789,18.646,7.11c5.708,0.511,9.007-0.766,10.958-3.524c1.326-1.892,2.092-4.387,1.656-7.463
			c-0.81-5.828-2.594-11.504-6.322-18.563c-1.965-3.72-4.327-7.604-7.004-11.558c-1.299-1.904-2.663-3.824-4.096-5.746
			c-1.297-1.738-2.641-3.479-4.035-5.203c-4.785-5.955-10.109-11.798-15.697-17.198c-3.488-3.375-7.088-6.592-10.725-9.592
			c-2.618-2.167-5.258-4.215-7.875-6.113c-1.808-1.305-3.607-2.55-5.385-3.705c-6.315-4.125-12.398-7.252-17.79-8.962
			c-5.018-1.597-9.45-1.98-12.938-0.81c-2.43,0.818-4.417,2.393-5.82,4.838c-1.147,2.01-1.92,4.597-2.235,7.853"/>
		<path fill="none" stroke="#0085A6" stroke-width="3" stroke-linecap="round" d="M102.047,123.1
			c3.181,0.795,6.33,1.223,9.924,1.313c5.939,0.144,7.717-1.319,9.771-4.179c1.41-1.957,2.152-5.301,1.711-8.481
			c-0.833-6.028-1.778-9.337-5.678-16.649c-2.048-3.854-5.34-9.66-8.138-13.731c-1.358-1.974-2.782-3.96-4.275-5.94
			c-1.357-1.791-2.76-3.592-4.215-5.376C96.152,63.92,90.595,57.89,84.759,52.326c-3.645-3.473-7.402-6.788-11.189-9.87
			c-2.738-2.228-5.49-4.328-8.228-6.278c-1.882-1.342-3.757-2.617-5.61-3.81c-6.585-4.222-12.93-7.425-18.555-9.165
			c-5.228-1.62-9.848-1.995-13.485-0.765c-2.542,0.855-4.612,2.49-6.083,5.018c-1.208,2.077-1.732,5.362-2.077,8.715"/>
		<path fill="none" stroke="#0085A6" stroke-width="3" stroke-linecap="round" stroke-linejoin="round" d="M117.415,98.98
			l-6.487-11.836l7.357,11.723c0.127-3.404-7.186-13.852-7.23-13.965l5.625,10.875c-1.297-3.682-7.268-11.272-7.268-11.25
			l7.95,13.853l-8.782-13.86c0.54,2.791,7.268,12.646,7.582,13.313L104.928,78.88c0.367,0.712,6.885,10.185,7.635,10.815
			c0.075,0.06,0.158,0.104,0.263,0.143c0.487-2.115-7.875-11.708-8.333-12.232l7.065,9.082c-1.41-4.664-7.875-10.754-8.056-10.957
			l7.928,9.869l-9.015-11.871l8.34,10.545c-1.433-2.416-7.177-10.396-8.452-11.543c-0.277-0.239-3.135-2.737-3.211-2.723
			l5.176,6.592l-4.942-5.535l6.435,8.004l-6.27-6.825l9.697,13.319c-0.143-0.6-6.346-9.299-8.37-11.221
			c-0.149-0.142-0.239-0.217-0.255-0.225c-0.18,0.098,9.346,13.328,9.825,14.152c0.075,0.149,0.157,0.293,0.239,0.436"/>
		<path fill="none" stroke="#0085A6" stroke-width="3" stroke-linecap="round" stroke-linejoin="round" d="M101.77,72.857
			c-0.082-0.022-1.492-2.025-1.912-2.49c-0.938-1.028-2.078-2.813-4.62-5.333c-0.165-0.158-0.555-0.548-1.087-0.893l7.462,8.032
			l-5.782-6.87l-0.766-0.525l5.018,5.941l-9.299-9.811l8.496,9.938l-8.496-9.038l10.986,12.983L92.23,63.64l7.657,10.26l-5.97-7.973
			l8.316,9.083L87.558,57.438"/>
		<path fill="none" stroke="#0085A6" stroke-width="3" stroke-linecap="round" stroke-linejoin="round" d="M100.779,70.39
			c-0.052-0.225-0.277-0.57-0.734-1.065c-2.737-2.933-8.73-9.968-15.697-15.075c-1.582-1.335-3.195-2.498-3.143-2.43
			c0.428,0.488,6.72,5.76,9.922,9.128c0.061,0.067,4.41,5.1,4.516,5.04c-0.42-2.025-9-9.405-9.075-9.465l8.37,7.98
			c0.008-0.015-3.697-4.86-5.902-6.48c-0.082-0.067-0.301-0.232-0.638-0.495"/>
		<path fill="none" stroke="#0085A6" stroke-width="3" stroke-linecap="round" stroke-linejoin="round" d="M95.103,63.842
			c-0.518-0.697-6.556-7.072-7.485-8.205c-0.307-0.36-3.322-2.693-4.973-4.178c-0.18-0.165-0.412-0.353-0.689-0.57
			c-0.21-0.165-0.412-0.323-0.615-0.488"/>
		<path fill="none" stroke="#0085A6" stroke-width="3" stroke-linecap="round" stroke-linejoin="round" d="M87.123,56.417
			c-0.969-1.223-7.351-6.728-9.09-7.8c-0.121-0.075-0.195-0.105-0.226-0.09l10.103,8.587l-9.96-8.572l7.125,6.6l-8.175-6.84
			l15.465,15.735l-8.715-9.15l9.547,9.532L78.04,49.375l8.753,8.348l-8.355-8.25c0.93,1.155,7.957,7.867,9.165,8.925
			c0.66,0.63,6.601,7.545,6.84,7.83l-6.63-6.578l8.25,8.61l-7.755-9.285c0.652,0.862,3.638,2.663,4.222,3.262
			c3.511,3.698,3.961,3.938,3.983,3.915L85.675,55.757c0.758,1.208,8.505,9.93,11.205,12.698c0.375,0.375,0.75,0.75,1.125,1.125"/>
		<path fill="none" stroke="#0085A6" stroke-width="3" stroke-linecap="round" stroke-linejoin="round" d="M60.43,34.885
			l14.085,11.1c-3.174-2.962-11.168-10.327-16.253-12.728c1.342,1.425,14.97,12.12,15.646,12.885
			c0.066,0.075,0.164,0.172,0.299,0.308"/>
		<path fill="none" stroke="#0085A6" stroke-width="3" stroke-linecap="round" stroke-linejoin="round" d="M57.092,33.565
			c0.473,0.255,1.2,0.69,1.59,0.968c1.357,1.065,4.342,3.247,8.22,6.39c0.735,0.555,1.665,1.268,2.115,1.635
			c0.112,0.09,0.217,0.18,0.33,0.27"/>
		<path fill="none" stroke="#0085A6" stroke-width="3" stroke-linecap="round" stroke-linejoin="round" d="M61.098,35.365
			c0.945,0.563,1.688,0.908,1.905,1.058c2.558,1.785,9.922,8.033,10.996,9.015c0.164,0.158,0.486,0.465,0.952,0.922"/>
		<path fill="none" stroke="#0085A6" stroke-width="3" stroke-linecap="round" stroke-linejoin="round" d="M60.618,34.578
			c0.285,0.217,4.882,2.782,9.045,6.217c0.795,0.66,2.52,2.16,2.746,2.393c0.119,0.127,0.337,0.337,0.659,0.645"/>
		<path fill="none" stroke="#0085A6" stroke-width="3" stroke-linecap="round" stroke-linejoin="round" d="M61.045,34.502
			c0.413,0.353,8.663,5.828,11.055,7.935c0.773,0.705,2.708,2.34,3.256,2.842c0.615,0.57,1.822,1.913,2.107,2.288
			c0.045,0.06,0.074,0.113,0.104,0.165"/>
		<path fill="none" stroke="#0085A6" stroke-width="3" stroke-linecap="round" stroke-linejoin="round" d="M67.63,38.98
			c0.855,0.555,3.997,2.535,4.792,3.3c0.803,0.772,4.351,3.998,4.365,3.998c-2.129-2.775-10.672-8.22-12.075-9.075
			c0.008,0.015,7.575,7.095,8.108,7.583c0.9,0.87,2.167,2.07,2.768,2.527c0.045,0.03,0.082,0.06,0.127,0.09"/>
		<path fill="none" stroke="#0085A6" stroke-width="3" stroke-linecap="round" stroke-linejoin="round" d="M68.5,41.748
			c0.015,0.083,1.575,1.245,2.221,1.732c1.656,1.26,3.84,3.158,4.882,3.915c0.757,0.54,1.229,0.915,1.649,1.297"/>
		<path fill="none" stroke="#0085A6" stroke-width="3" stroke-linecap="round" stroke-linejoin="round" d="M70.63,42.805
			L82.69,53.38L69.513,41.373c0.405,0.592,9.435,7.08,13.319,10.77c0.69,0.675,1.576,1.53,1.726,1.62
			c-1.216-3.188-11.183-9.735-11.61-10.118c0,0.015,2.123,1.237,4.516,3.368c2.609,2.28,7.709,6.87,7.747,6.84
			c-1.29-1.448-2.257-2.333-5.79-5.228c-3.248-2.692-3.72-3.052-6.188-4.688c-0.157-0.105-0.308-0.203-0.465-0.308"/>
		<path fill="none" stroke="#0085A6" stroke-width="3" stroke-linecap="round" stroke-linejoin="round" d="M47.447,27.917
			c3.653,1.11,10.71,6.248,14.46,8.737L48.55,27.183l12.885,9.712l-12.413-8.55l16.208,9.697c-0.36-0.48-0.908-0.825-1.688-1.268
			c-0.06-0.03-0.12-0.06-0.18-0.098"/>
		<path fill="none" stroke="#0085A6" stroke-width="3" stroke-linecap="round" stroke-linejoin="round" d="M49.263,28
			c1.23,0.413,3,1.103,5.01,2.302c1.17,0.698,3.045,2.063,3.788,2.543c0.615,0.397,2.243,1.32,2.925,1.853
			c0.083,0.067,0.127,0.097,0.135,0.097"/>
		<path fill="none" stroke="#0085A6" stroke-width="3" stroke-linecap="round" stroke-linejoin="round" d="M49.105,27.573
			c2.52,0.825,9.36,4.935,12.93,7.777c0.337,0.262,0.802,0.592,1.402,1.005c0.127,0.09,0.24,0.158,0.33,0.21"/>
		<path fill="none" stroke="#0085A6" stroke-width="3" stroke-linecap="round" stroke-linejoin="round" d="M50.065,27.663
			c1.635,0.63,3.788,1.853,5.618,3.045c2.272,1.485,7.822,5.565,8.925,6.337c0.24,0.172,0.413,0.323,0.525,0.442"/>
		<path fill="none" stroke="#0085A6" stroke-width="3" stroke-linecap="round" stroke-linejoin="round" d="M53.013,29.65
			c1.552,0.817,7.035,3.968,12.585,8.115c0.36,0.255,1.597,0.915,1.657,0.96c-4.68-4.027-15.367-9.923-15.795-10.118
			c0.817,0.21,11.76,7.665,12.96,8.325c1.058,0.57,1.44,0.735,2.498,1.117l-15.743-8.542c0.33,0.292,8.895,6.135,10.365,6.945
			c0.03,0.015,0.067,0.03,0.098,0.045c-2.063-1.748-12.405-7.837-12.653-7.958c-0.15-0.067-0.645-0.232-0.772-0.27
			c-0.03-0.007-0.067-0.022-0.12-0.045"/>
		<path fill="none" stroke="#0085A6" stroke-width="3" stroke-linecap="round" stroke-linejoin="round" d="M39.16,24.31
			c2.197,0.518,6.105,1.987,8.197,3.308c0.6,0.382,2.183,1.387,3.008,1.837c-4.38-3.27-12.818-5.708-12.848-5.7l12.772,6.158
			l-11.542-5.745c1.987,0.743,7.072,2.138,7.478,2.28c0.998,0.352,4.245,1.979,4.665,2.137l-11.325-4.507l11.647,4.583
			c-1.065-0.48-4.087-2.002-5.632-2.647c-1.087-0.443-3.953-1.935-6.315-2.28c-0.248-0.03-0.24,0.022-0.315,0.045
			c1.057,0.21,2.978,0.645,5.43,1.545c3.075,1.56,6.203,3.142,6.285,3.157c-0.495-0.277-0.998-0.555-1.5-0.84
			c-0.18-0.098-0.292-0.158-0.345-0.18"/>
		<path fill="none" stroke="#0085A6" stroke-width="3" stroke-linecap="round" stroke-linejoin="round" d="M38.072,23.357
			c0.683-0.165,4.388,0.69,7.56,2.235c0.428,0.21,3.818,2.07,5.565,3.128c0.098,0.06,0.165,0.097,0.195,0.12"/>
		<path fill="none" stroke="#0085A6" stroke-width="3" stroke-linecap="round" stroke-linejoin="round" d="M41.65,24.362
			c0.135-0.015,3.638,1.088,5.16,1.688c0.967,0.383,5.52,2.693,6.802,3.563c0.292,0.195,0.698,0.45,1.215,0.773
			c0.105,0.067,0.172,0.104,0.202,0.12"/>
		<path fill="none" stroke="#0085A6" stroke-width="3" stroke-linecap="round" stroke-linejoin="round" d="M30.685,23.17l-0.6,0.045
			c1.035-0.307,3.405-0.135,4.583,0.15c1.583,0.398,4.973,1.988,5.01,1.913l-8.183-1.942c2.123-0.637,8.393,0.877,8.58,0.855
			l-8.25-1.402c0.54-0.03,3.66-0.195,4.912,0.277c2.115,0.81,6.435,3.353,7.35,3.6l-8.04-2.655l8.318,2.13
			c-0.255-0.173-5.535-2.317-5.558-2.325c-3.345-1.47-4.897-1.83-5.603-1.507c0.848,0.127,1.29,0.203,1.598,0.277
			c0.037,0.015,0.06,0.022,0.075,0.022"/>
		<path fill="none" stroke="#0085A6" stroke-width="3" stroke-linecap="round" stroke-linejoin="round" d="M26.703,24.295
			c0.877-0.623,3.337-1.072,4.47-0.922c1.635,0.285,3.278,0.42,3.308,0.413l-7.328,0.6c2.393-1.29,5.843-1.11,6.45-1.193
			l-6.353,0.21c1.493-0.975,4.755-0.84,5.535-0.757c0.127,0.007,0.27,0.03,0.442,0.053"/>
		<path fill="none" stroke="#0085A6" stroke-width="3" stroke-linecap="round" stroke-linejoin="round" d="M22.75,27.1
			c0.27-1.718,5.138-3.78,5.272-3.75l-4.147,2.558"/>
		<path fill="none" stroke="#0085A6" stroke-width="2" stroke-linecap="round" stroke-linejoin="round" d="M24.46,25.638
			c-0.907,0.63-1.32,0.952-1.462,1.185c-0.172,0.262-0.285,0.465-0.36,0.6c-0.008,0.015-0.008,0.022-0.015,0.038"/>
		<path fill="none" stroke="#0085A6" stroke-width="2" stroke-linecap="round" stroke-linejoin="round" d="M21.257,29.808
			c0.39-1.515,2.01-3.563,2.198-3.728c0,0,0.007,0,0,0l-0.292,0.382"/>
		<path fill="none" stroke="#0085A6" stroke-width="2" stroke-linecap="round" stroke-linejoin="round" d="M22.6,27.377
			c0-0.015-0.022,0.015-0.03,0.022c-0.487,0.772-0.772,1.065-0.765,1.065c0.397-1.005,1.237-2.167,1.583-2.445
			c0.083-0.075,0.195-0.172,0.345-0.3c0.008-0.008,0.045-0.03,0.03-0.022"/>
		<path fill="none" stroke="#0085A6" stroke-width="2" stroke-linecap="round" stroke-linejoin="round" d="M21.79,27.933
			c0.728-1.185,1.328-1.875,2.873-3.083c0.135-0.105,0.322-0.277,0.555-0.502c0.045-0.038,0.068-0.06,0.083-0.068"/>
		<path fill="none" stroke="#0085A6" stroke-width="2" stroke-linecap="round" stroke-linejoin="round" d="M25.24,24.49l4.86-1.425
			c-0.015,0.03-2.183,0.908-2.258,0.93c-2.1,0.675-3.067,1.575-3.262,1.657c3.795-1.8,8.925-2.595,9.465-2.663
			c0.195-0.022,0.383-0.052,0.57-0.09"/>
		<path fill="none" stroke="#0085A6" stroke-width="2" stroke-linecap="round" stroke-linejoin="round" d="M121.188,109.45
			l-4.68-11.31c2.744,3.778,4.942,12.584,4.935,12.568c-3.067-9.684-7.253-15.045-7.268-15.128
			c4.463,8.288,6.053,14.782,6.046,14.769l-4.059-12.689c-0.082,0.127,2.535,6.9,3.607,11.527c0.083,0.383,0.248,0.914,0.338,1.178
			l-3.375-11.318l2.797,11.281c0.436-0.607,0.076-3.023-0.727-5.844c-0.54-1.973-1.838-6.314-1.793-6.248l3.697,10.974l-4.027-12.06
			l4.072,10.41l-3.832-11.574l3.742,9.354l-4.199-9.436l4.957,12.982l-3.93-11.228l4.282,10.59
			c0.622-1.867-3.427-9.825-3.487-10.133l3.375,8.813c-0.225-6.308-4.402-11.482-4.492-11.596l4.17,11.175
			c0.27-2.385-6.982-13.813-7.426-14.413l6.248,14.301l-5.572-13.071c2.932,6.772,5.354,16.05,5.414,16.282
			c0.016,0.074,0,0.119-0.015,0.143"/>
		<path fill="none" stroke="#0085A6" stroke-width="2" stroke-linecap="round" stroke-linejoin="round" d="M120.123,106.165
			l0.225-0.368c0.39,0.143,1.297,2.184,1.41,2.424c0.697,1.529,0.24,6.18,0.24,6.697l-0.871-8.4l1.096,9.519
			c0.6-3.563-0.721-9.54-0.728-9.474c1.462,5.453,0.878,8.422,0.899,8.662c0.346-0.262,0.09-4.77,0.03-5.768
			c-0.247-2.662-1.274-4.537-1.478-4.799c0.773,2.504,1.065,5.084,0.795,7.26c-0.112,0.848-0.532,4.297-0.705,4.882l-0.42-8.737
			l0.24,9.181l-0.518-9.037l0.338,9.592l-0.037-8.167l1.064,6.811c1.012-2.174,0.555-7.793,0.359-8.549
			c-0.914-0.713,0.136,6.905,0.338,8.174c0.713-1.058-1.012-8.101-1.275-8.039c-0.854,0.24,0.315,7.133,0.458,7.746l-0.757-6.765
			l0.188,5.992l-0.211-5.438l-0.307,4.801c0.637-1.784-0.855-6.622-0.938-6.684l0.577,7.62l-1.229-7.673l1.191,7.996
			c0.135-0.09,0-2.865-0.27-5.939c-0.09-1.074-0.21-2.514-0.218-2.543c-0.007-0.061-0.015-0.127-0.022-0.188"/>
		<path fill="none" stroke="#0085A6" stroke-width="2" stroke-linecap="round" stroke-linejoin="round" d="M122.484,114.37
			c-0.09,0.188-0.854,3.42-2.1,4.979c-0.397,0.496-1.342,1.328-1.41,1.351l3.443-5.685c-0.188,1.521-1.771,4.799-2.798,5.481
			c-1.357,0.877-1.681,1.153-1.875,1.635c2.482-1.401,3.735-2.378,4.688-5.123c-0.015,0.601-1.403,3.023-2.7,4.065
			c-0.578,0.458-2.1,1.688-2.857,2.048l3.9-3.173l-4.801,3.083c1.434-0.767,3.855-2.746,4.65-4.448c0.45-0.997,1.02-2.67,0.975-2.7
			l-4.372,5.888l3.757-6.584l-2.924,5.475l3.352-7.883l-1.837,6.773l1.492-8.617l-1.583,7.791l2.476-6.72l-1.635,6.39
			c0.39-0.404,0.87-1.306,1.409-2.691c0.098-0.232,0.188-0.488,0.278-0.758"/>
		<path fill="none" stroke="#0085A6" stroke-width="2" stroke-linecap="round" stroke-linejoin="round" d="M119.05,119.814
			c-0.097,0.428-1.357,1.389-1.635,1.621c-0.563,0.39-1.726,1.17-1.868,1.313l3.938-2.393l-2.564,2.735l0.158-0.073"/>
		<path fill="none" stroke="#0085A6" stroke-width="2" stroke-linecap="round" stroke-linejoin="round" d="M121.21,120.422
			c-0.12,0.293-1.92,1.389-3.052,2.063c-1.088,0.699-1.674,1.021-2.191,1.193c-0.097,0.029-0.188,0.061-0.277,0.082
			c-0.021,0-0.037,0.008-0.037,0.008"/>
		<path fill="none" stroke="#0085A6" stroke-width="2" stroke-linecap="round" stroke-linejoin="round" d="M119.875,121.51
			c-0.48,0.367-1.74,1.014-2.775,1.336c-0.479,0.149-3.824,0.795-4.334,0.951c-0.068,0.023-0.098,0.038-0.083,0.045"/>
		<path fill="none" stroke="#0085A6" stroke-width="2" stroke-linecap="round" stroke-linejoin="round" d="M117.633,122.68
			l-5.565,1.537l0.428-0.111"/>
		<path fill="none" stroke="#0085A6" stroke-width="2" stroke-linecap="round" stroke-linejoin="round" d="M117.287,123.242
			c-0.832,0.211-1.598,0.367-2.925,0.563c-1.335,0.203-1.694,0.264-2.392,0.398c-0.046,0.007-0.068,0.007-0.068,0.007"/>
		<path fill="none" stroke="#0085A6" stroke-width="3" stroke-linecap="round" d="M43.945,116.207
			c1.268,10.838,10.283,15.75,14.13,15.953c2.625,0.143,6.54-0.811,9.052-2.559c4.77-3.314,8.752-7.313,12.743-13.484
			c2.114-3.27,4.125-6.938,5.992-10.904c0.9-1.928,1.778-3.923,2.61-5.971c0.75-1.859,1.478-3.771,2.16-5.715
			c2.377-6.729,4.327-13.92,5.699-21.202c0.871-4.583,1.523-9.225,1.943-13.823c0.314-3.337,0.502-6.652,0.555-9.893
			c0.045-2.25,0.022-4.455-0.061-6.623c-0.299-7.755-1.417-14.902-3.465-20.79c-1.912-5.535-4.65-9.96-8.287-12.743
			c-2.558-1.95-5.558-3.083-9.037-3.218c-2.851-0.112-6.023,0.45-9.525,1.785"/>
		<path fill="none" stroke="#0085A6" stroke-width="3" stroke-linecap="round" d="M45.438,122.02
			c1.493,2.865,2.558,5.295,5.138,7.951c3.862,3.967,7.792,4.709,11.79,4.949c2.715,0.158,6.622-1.199,9.217-2.992
			c4.92-3.412,6.548-5.093,10.643-11.461c2.168-3.375,5.318-8.639,7.23-12.734c0.93-1.986,1.814-4.049,2.67-6.172
			c0.772-1.92,1.508-3.893,2.213-5.91c2.422-6.953,4.402-14.393,5.782-21.93c0.87-4.741,1.515-9.548,1.927-14.303
			c0.301-3.458,0.48-6.893,0.518-10.252c0.031-2.325,0-4.613-0.104-6.855c-0.353-8.033-1.552-15.442-3.705-21.555
			c-2.024-5.752-4.882-10.35-8.67-13.252c-2.655-2.032-5.774-3.225-9.375-3.39c-2.955-0.127-6.646,1.013-10.275,2.377"/>
		<path fill="none" stroke="#0085A6" stroke-width="3" stroke-linecap="round" stroke-linejoin="round" d="M78.453,121.975
			L85,111.438l-5.873,11.168c2.934-1.356,7.943-12.029,8.011-12.104l-6.255,9.437l5.527-10.914l-7.455,12.639l6.915-13.299
			c-2.205,1.727-6.795,11.566-7.2,12.121c0.037-0.016,5.34-8.752,7.582-12.457c1.275-2.063,2.056-3.961,2.408-5.197l-4.875,11.348
			c2.25-0.601,5.588-11.678,5.768-12.293l-3.721,9.832c3.354-3.27,4.732-11.265,4.793-11.505l-3.877,10.905l5.018-12.721
			l-4.238,11.572c1.275-2.258,4.875-10.643,5.085-12.128c0.046-0.338,0.487-3.817,0.421-3.877l-2.701,7.269l1.868-6.586
			l-3.165,8.934l2.189-8.243l-5.91,13.995c0.451-0.391,4.389-9.404,4.838-11.939c0.03-0.181,0.045-0.285,0.037-0.309
			c-0.209-0.098-6.127,13.695-6.577,14.453c-0.083,0.135-0.157,0.262-0.239,0.391"/>
		<path fill="none" stroke="#0085A6" stroke-width="3" stroke-linecap="round" stroke-linejoin="round" d="M92.154,97.473
			c-0.037-0.082,0.886-2.16,1.043-2.723c0.338-1.236,1.245-3.008,1.92-6.277c0.037-0.203,0.15-0.713,0.12-1.313l-2.565,9.861
			l2.588-7.935l-0.015-0.878l-2.228,6.893l3.016-12.263L92.38,94.51l2.813-11.242L90.355,98.38l4.087-13.05L89.95,96.438
			l3.465-8.625l-2.948,11.041c1.508-0.713,6.713-20.244,6.691-20.34"/>
		<path fill="none" stroke="#0085A6" stroke-width="3" stroke-linecap="round" stroke-linejoin="round" d="M93.783,95.516
			c0.172-0.149,0.344-0.496,0.502-1.096c0.93-3.607,3.195-11.175,3.922-21.713c0.038-0.6,0.068-2.317,0.038-2.234
			c-0.173,0.591-0.968,8.416-2.018,12.675c-0.022,0.082-1.853,6.045-1.732,6.111c0.21-0.172,2.43-8.234,2.857-11.835
			c0.007-0.06,0.015-0.12,0.015-0.18l-1.942,10.731c0.015,0,2.093-5.348,2.167-7.957c0-0.099,0.016-0.353,0.046-0.766"/>
		<path fill="none" stroke="#0085A6" stroke-width="3" stroke-linecap="round" stroke-linejoin="round" d="M96.145,87.797
			c0.309-0.75,2.221-7.738,2.738-10.094c0.143-0.428,0.345-4.073,0.652-6.182c0.037-0.231,0.061-0.518,0.082-0.861
			c0.023-0.248,0.037-0.502,0.053-0.75"/>
		<path fill="none" stroke="#0085A6" stroke-width="3" stroke-linecap="round" stroke-linejoin="round" d="M97.832,77.658
			c0.51-1.396,1.479-9.428,1.336-11.431c-0.008-0.135-0.03-0.217-0.061-0.24c0.218,0.383,0.12,2.783-0.135,5.4
			c-0.21,2.139-1.275,7.274-1.275,7.26l1.485-12.524l-1.5,9.209l1.034-10.229c-0.645,2.895-1.986,10.455-2.594,13.164
			c-0.113,0.629-1.943,6.996-1.965,7.371l2.819-11.625l-2.625,12.495l4.103-19.913l-2.063,11.407l2.234-11.017
			c-0.705,2.01-2.31,12.209-3.066,14.767c-0.863,2.769-1.965,6.293-2.07,6.631l1.762-8.61L92.658,90.67l3.563-10.809
			c-0.383,0.961-0.098,4.291-0.278,5.063c-1.132,4.628-1.058,5.115-1.027,5.122l2.58-13.912c-0.292,0.563-3.735,12.03-4.028,13.305
			c-0.149,0.668-0.299,1.328-0.449,1.996c-0.098,0.479-0.203,0.959-0.301,1.439"/>
		<path fill="none" stroke="#0085A6" stroke-width="3" stroke-linecap="round" stroke-linejoin="round" d="M100.51,44.163
			c-0.008,0.007-0.449,9.03-0.502,12.157c-0.016,0.87-0.66,5.693-0.683,5.61c0.704-4.193,2.399-14.79,1.282-20.513
			c-0.457,1.905-1.785,19.905-1.838,20.07c-0.021,0.09-0.053,0.225-0.09,0.405"/>
		<path fill="none" stroke="#0085A6" stroke-width="3" stroke-linecap="round" stroke-linejoin="round" d="M99.527,40.518
			c0.075,0.547,0.143,1.41,0.143,1.905c-0.112,1.732-0.203,5.46-0.607,10.425c-0.037,0.907-0.09,2.077-0.143,2.647
			c-0.008,0.097-0.022,0.24-0.037,0.413"/>
		<path fill="none" stroke="#0085A6" stroke-width="3" stroke-linecap="round" stroke-linejoin="round" d="M100.487,44.995
			c0.104,1.11,0.271,1.942,0.271,2.212c0.008,3.143-1.035,12.615-1.26,14.018c-0.038,0.217-0.113,0.645-0.232,1.268"/>
		<path fill="none" stroke="#0085A6" stroke-width="3" stroke-linecap="round" stroke-linejoin="round" d="M100.93,44.177
			c-0.015,0.323,0.495,2.61,0.555,4.313c0.053,1.388-0.712,9.473-0.899,10.275c-0.045,0.157-0.098,0.45-0.173,0.877"/>
		<path fill="none" stroke="#0085A6" stroke-width="3" stroke-linecap="round" stroke-linejoin="round" d="M101.297,44.53
			c-0.066,0.533,0.211,10.493-0.201,13.598c-0.098,0.675-0.428,3.48-0.541,4.192c-0.127,0.803-0.607,2.49-0.771,2.917
			c-0.023,0.06-0.053,0.12-0.083,0.165"/>
		<path fill="none" stroke="#0085A6" stroke-width="3" stroke-linecap="round" stroke-linejoin="round" d="M101.41,52.54
			c0.045,1.027,0.24,4.732,0.045,5.797c-0.195,1.065-0.908,5.685-0.893,5.7c1.215-3.173,0.721-13.275,0.6-14.933
			c-0.008,0.015-1.709,10.08-1.83,10.777c-0.217,1.208-0.518,2.873-0.547,3.615c-0.008,0.052-0.008,0.105-0.008,0.157"/>
		<path fill="none" stroke="#0085A6" stroke-width="3" stroke-linecap="round" stroke-linejoin="round" d="M99.348,54.647
			c-0.068,0.06-0.135,1.98-0.173,2.783c-0.083,2.055-0.435,4.86-0.458,6.12c-0.014,0.915-0.059,1.5-0.142,2.04"/>
		<path fill="none" stroke="#0085A6" stroke-width="3" stroke-linecap="round" stroke-linejoin="round" d="M99.76,57.025
			l-2.002,15.45l2.617-17.122c-0.285,0.652-0.442,11.58-1.35,16.649c-0.18,0.916-0.405,2.07-0.398,2.234
			c0.541-0.613,1.148-3.276,1.493-6.509c0.104-1.328,0.308-7.717,0.39-8.272c-0.015,0,0.232,2.438-0.202,5.512
			c-0.428,3.33-1.38,9.848-1.327,9.863c0.51-1.77,0.697-3.016,1.102-7.41c0.09-1.05,0.42-4.657,0.33-7.583
			c0-0.188-0.008-0.367-0.008-0.547"/>
		<path fill="none" stroke="#0085A6" stroke-width="3" stroke-linecap="round" stroke-linejoin="round" d="M98.447,28.922
			c1.41,3.908,1.223,12.84,1.35,17.415L99.91,29.59l-0.66,16.448l-0.15-15.45c1.471,8.625,1.516,17.4,1.598,19.388
			c0.225-0.555,0.188-1.215,0.082-2.115c-0.007-0.067-0.014-0.135-0.021-0.202"/>
		<path fill="none" stroke="#0085A6" stroke-width="3" stroke-linecap="round" stroke-linejoin="round" d="M99.603,30.64
			c0.435,1.335,0.968,3.3,1.17,5.715c0.112,1.41,0.067,3.78,0.104,4.68c0.031,0.75,0.24,2.663,0.181,3.532
			c0,0.105-0.008,0.158,0,0.165"/>
		<path fill="none" stroke="#0085A6" stroke-width="3" stroke-linecap="round" stroke-linejoin="round" d="M99.918,30.288
			c0.967,2.91,1.215,6.135,1.379,7.897c0.181,3.045-0.188,8.28-0.18,9.375c0,0.157,0.008,0.292,0.016,0.397"/>
		<path fill="none" stroke="#0085A6" stroke-width="3" stroke-linecap="round" stroke-linejoin="round" d="M100.48,31.21
			c0.494,1.815,0.765,4.38,0.854,6.638c0.098,2.767-0.098,9.735-0.098,11.085c-0.007,0.3-0.03,0.525-0.067,0.682"/>
		<path fill="none" stroke="#0085A6" stroke-width="3" stroke-linecap="round" stroke-linejoin="round" d="M100.555,34.893
			c0.256,1.815,0.916,8.31,0.66,15.262c-0.008,0.45,0.195,1.86,0.188,1.935c0.728-6.105-0.795-18.645-0.893-19.125
			c0.353,0.848,0.54,14.363,0.713,15.75c0.157,1.215,0.255,1.635,0.6,2.752c0.12-0.067-0.975-8.85-1.98-13.957
			c-0.172-0.863-0.337-3.803-0.404-4.373c-0.053,0.45,0.09,11.07,0.314,12.772c0,0.045,0.008,0.075,0.016,0.112
			c0.293-2.7-0.825-15.09-0.877-15.368c-0.038-0.18-0.219-0.712-0.264-0.847c-0.015-0.03-0.029-0.075-0.045-0.135"/>
		<path fill="none" stroke="#0085A6" stroke-width="3" stroke-linecap="round" stroke-linejoin="round" d="M96.266,19.397
			c1.244,2.955,2.219,6.63,2.227,6.72c0.09,0.847,0.322,5.272,0.45,6.255c0.188-5.655-3.239-14.775-3.271-14.805l2.775,14.962
			l-2.324-13.59c0.645,2.243,2.781,7.688,2.917,8.13c0.337,1.095,0.968,4.89,1.103,5.363L96.775,19.66
			c0.524,1.185,1.867,5.43,2.303,6.99c0.299,1.087,0.861,5.04,1.215,6.113c-0.256-1.223-0.84-4.763-1.275-6.51
			c-0.308-1.23-0.817-4.65-2.107-7.035C96.768,18.97,96.723,19,96.647,18.94c0.518,1.095,1.417,3.12,2.22,5.857
			c0.855,3.263,1.088,6.923,1.162,7.223c0.016,0.045,0.038,0.098,0.068,0.15c-0.075-0.6-0.143-1.192-0.21-1.792
			c-0.03-0.21-0.046-0.353-0.06-0.405"/>
		<path fill="none" stroke="#0085A6" stroke-width="3" stroke-linecap="round" stroke-linejoin="round" d="M96.445,17.897
			c0.645,0.57,2.354,4.478,3.021,8.198c0.091,0.502,0.594,4.552,0.75,6.682c0.016,0.12,0.016,0.195,0.016,0.233"/>
		<path fill="none" stroke="#0085A6" stroke-width="3" stroke-linecap="round" stroke-linejoin="round" d="M97.938,21.775
			c0.09,0.098,2.43,7.252,2.992,11.587c0.03,0.263,0.075,2.603,0.135,3.54c0.008,0.127,0.016,0.21,0.023,0.248"/>
		<path fill="none" stroke="#0085A6" stroke-width="3" stroke-linecap="round" stroke-linejoin="round" d="M91.473,10.765
			l-0.465-0.555c1.035,0.84,2.527,3.195,3.067,4.462c0.712,1.695,1.492,5.7,1.604,5.7c0.248-0.615-0.172-1.545-1.484-4.11
			c-0.6-1.185-2.311-4.673-2.318-4.635c2.115,1.71,4.988,8.415,5.146,8.58l-4.372-8.542c0.412,0.51,2.752,3.405,3.164,4.83
			c0.668,2.4,1.156,7.717,1.545,8.692l-2.962-8.88l3.667,8.887c-0.074-0.6-1.072-4.845-1.191-5.235
			c-0.285-0.93-1.141-5.317-2.243-6.75c-0.135-0.165-0.308-0.322-0.532-0.465c0.465,0.877,0.697,1.335,0.832,1.665
			c0.023,0.045,0.03,0.067,0.037,0.083"/>
		<path fill="none" stroke="#0085A6" stroke-width="3" stroke-linecap="round" stroke-linejoin="round" d="M87.527,7.487
			c1.252,0.533,3.436,2.678,4.088,3.84c0.869,1.71,1.883,3.353,1.904,3.375l-5.76-6.735c2.978,1.658,5.228,5.063,5.745,5.603
			l-4.694-6c2.031,0.953,4.185,4.155,4.664,4.943c0.068,0.127,0.158,0.277,0.256,0.45"/>
		<path fill="none" stroke="#0085A6" stroke-width="3" stroke-linecap="round" stroke-linejoin="round" d="M81.895,5.058
			C83.8,4.45,89.35,8.14,89.41,8.29l-5.513-2.745"/>
		<path fill="none" stroke="#0085A6" stroke-width="2" stroke-linecap="round" stroke-linejoin="round" d="M84.588,5.98
			c-1.283-0.563-1.905-0.803-2.235-0.833c-0.39-0.03-0.675-0.038-0.87-0.038c-0.016,0-0.029,0-0.045,0"/>
		<path fill="none" stroke="#0085A6" stroke-width="2" stroke-linecap="round" stroke-linejoin="round" d="M78.1,4.96
			c1.793-0.39,5.025,0.165,5.318,0.27c0.007,0,0.007,0,0.007-0.007l-0.6-0.09"/>
		<path fill="none" stroke="#0085A6" stroke-width="2" stroke-linecap="round" stroke-linejoin="round" d="M81.505,5.042
			c0.015,0-0.03-0.015-0.045-0.015c-1.125-0.09-1.628-0.225-1.62-0.21c1.298-0.12,3.068,0.12,3.593,0.308
			c0.135,0.045,0.315,0.112,0.54,0.188c0.022,0.007,0.067,0.022,0.053,0.015"/>
		<path fill="none" stroke="#0085A6" stroke-width="2" stroke-linecap="round" stroke-linejoin="round" d="M80.365,4.533
			c1.71,0.112,2.842,0.353,5.152,1.252c0.21,0.075,0.51,0.172,0.9,0.285c0.066,0.022,0.111,0.038,0.127,0.038"/>
		<path fill="none" stroke="#0085A6" stroke-width="2" stroke-linecap="round" stroke-linejoin="round" d="M86.29,6.167l4.875,3.975
			c-0.038,0.007-1.455-0.982-2.527-1.71C86.471,6.745,84.88,6.257,84.654,6.1c4.5,2.775,8.91,7.305,9.354,7.792
			c0.157,0.172,0.322,0.337,0.487,0.502"/>
		<path fill="none" stroke="#0085A6" stroke-width="2" stroke-linecap="round" stroke-linejoin="round" d="M71.418,129.707
			l7.199-8.813c-1.717,4.071-8.189,9.606-8.175,9.592c1.718-1.731,5.872-6.764,6.173-7.207c1.598-2.348,2.744-5.34,2.797-5.385
			c-4.612,7.291-9.465,11.506-9.457,11.489c2.745-1.643,8.55-8.069,8.873-8.983c-0.166,0-3.121,3.457-3.938,4.35
			c-1.381,1.508-4.846,4.365-5.025,4.561l8.077-7.822l-8.43,7.365c0.847,0.051,2.798-1.344,4.837-3.264
			c1.447-1.326,4.545-4.335,4.508-4.268l-7.537,7.912c2.07-1.049,8.324-8.686,8.31-8.67l-6.788,7.942l8.018-8.295l-6.052,7.199
			l5.819-7.591l-8.542,9.804l7.62-8.188l-6.817,8.166c0.765-0.143,3.3-2.138,4.71-4.223c0.893-1.26,2.16-3.09,2.213-3.128
			l-5.791,6.651c5.58-3.073,7.545-8.676,7.598-8.797l-7.432,8.355c2.348-0.893,7.986-11.768,8.242-12.391l-8.926,11.445
			l8.243-10.351c-4.245,5.407-11.085,11.558-11.258,11.715c-0.052,0.045-0.112,0.045-0.135,0.054"/>
		<path fill="none" stroke="#0085A6" stroke-width="2" stroke-linecap="round" stroke-linejoin="round" d="M73.705,127.383h0.473
			c0.135,0.367-1.117,1.994-1.26,2.189c-0.931,1.238-5.46,3.029-5.933,3.277l7.058-4.545c0.082-0.021-4.148,3.786-5.715,4.471
			c-0.66,0.277-1.388,0.518-2.205,0.758c3.63-1.193,8.182-4.943,8.123-4.922c-3.99,3.623-7.073,4.547-7.268,4.674
			c0.473,0.143,4.388-2.131,5.25-2.633c2.257-1.41,3.285-3.062,3.382-3.338c-1.77,1.74-3.906,3.158-6.067,3.953
			c-0.84,0.308-4.26,1.573-4.905,1.717l7.657-4.351l-8.183,4.419l7.868-4.563l-8.49,4.681l7.402-3.795
			c0.045-0.155-4.058,2.416-5.093,3.315c-0.27,0.246-0.353,0.435-0.39,0.638c2.655-0.24,7.447-3.173,8.002-3.677
			c0.053-1.02-6.18,3.285-7.192,4.029c1.44,0.051,6.674-4.509,6.458-4.674c-0.787-0.547-6.278,3.525-6.743,3.915l5.647-3.696
			l-5.325,2.91l4.807-2.672l-4.574,1.988c2.047-0.346,5.46-3.713,5.452-3.803l-6.547,3.959l6.166-4.484l-6.488,4.605
			c0.18,0.061,2.618-1.328,5.228-2.955c0.915-0.563,2.146-1.32,2.175-1.336c0.053-0.037,0.105-0.066,0.158-0.104"/>
		<path fill="none" stroke="#0085A6" stroke-width="2" stroke-linecap="round" stroke-linejoin="round" d="M67.81,132.963
			c-0.232,0.016-3.675,0.93-5.933,0.712c-0.712-0.075-2.123-0.411-2.19-0.45l7.5-0.015c-3.922,1.455-8.947-0.345-9.63-0.255
			c2.962,1.23,4.688,1.732,7.83,1.186c-0.563,0.262-3.69,0.338-5.528-0.166c-0.81-0.231-2.962-0.815-3.802-1.229l5.542,1.492
			l-6.075-2.221c1.68,0.734,5.123,1.666,7.208,1.479c1.208-0.12,3.113-0.458,3.113-0.503l-8.31-0.601l8.535-0.195l-6.96,0.316
			l9.435-1.096l-7.395,1.732l8.835-2.852l-8.145,2.4l7.763-1.223l-6.9,1.701c0.63,0.113,1.77,0.061,3.397-0.164
			c0.277-0.037,0.563-0.091,0.87-0.143"/>
		<path fill="none" stroke="#0085A6" stroke-width="2" stroke-linecap="round" stroke-linejoin="round" d="M60.55,132.873
			c-0.458,0.119-2.182-0.398-2.587-0.496c-0.232-0.098-2.235-0.771-2.467-0.816l4.86,1.891l-4.237-0.684l0.172,0.082"/>
		<path fill="none" stroke="#0085A6" stroke-width="2" stroke-linecap="round" stroke-linejoin="round" d="M61.458,134.793
			c-0.345,0.045-2.565-0.818-3.945-1.365c-1.38-0.503-2.07-0.803-2.58-1.109c-0.098-0.061-0.18-0.121-0.263-0.18
			c-0.022-0.016-0.038-0.022-0.038-0.022"/>
		<path fill="none" stroke="#0085A6" stroke-width="2" stroke-linecap="round" stroke-linejoin="round" d="M59.567,134.275
			c-0.66-0.188-2.107-0.848-3.105-1.485c-0.465-0.3-3.345-2.558-3.84-2.872c-0.067-0.045-0.105-0.061-0.098-0.045"/>
		<path fill="none" stroke="#0085A6" stroke-width="2" stroke-linecap="round" stroke-linejoin="round" d="M56.973,133.12
			l-5.213-3.548l0.398,0.277"/>
		<path fill="none" stroke="#0085A6" stroke-width="2" stroke-linecap="round" stroke-linejoin="round" d="M56.23,133.12
			c-0.765-0.532-1.425-1.05-2.52-1.979c-1.095-0.924-1.402-1.17-2.002-1.643c-0.045-0.038-0.06-0.053-0.053-0.053"/>
		<path fill="none" stroke="#0085A6" stroke-linecap="round" d="M99.311,42.145c-7.035-1.643-13.17,11.82-1.493,15.563"/>
		<path fill="none" stroke="#0085A6" stroke-linecap="round" d="M96.317,49.93"/>
		<path fill="none" stroke="#0085A6" stroke-linecap="round" d="M102.303,41.845c8.377,2.842,7.035,13.92-0.15,16.162"/>
		<path fill="none" stroke="#0085A6" stroke-width="6" stroke-linecap="round" stroke-linejoin="round" d="M103.683,46.533
			l-0.053-0.323c0.038,0.33,0.938,3.203,0.765,3.93c-0.322,1.297-1.027,2.4-1.02,2.385c0.915-1.867,0.547-4.643,0.127-5.475
			c0.525,2.048,0.908,4.305,0.578,5.655c-0.195,0.743-1.508,2.197-1.522,2.43l1.897-2.625l-2.107,3.021
			c0.262-0.038,1.02-0.69,1.762-1.53c1.051-1.215,1.719-4.605,1.455-5.498l-0.802,3.908l0.263-2.22l-1.021,2.768l1.261-2.362
			l-0.953,2.302c0.346-0.098,0.848-1.98,0.795-3.292c-0.022-0.99-0.855-3.21-1.32-3.66l0.742,0.592l-1.717-1.59l1.252,0.825
			l-1.395-1.402c0.158,0.24,2.025,1.583,2.348,2.453c0.127,0.39,0.248,1.485,0.098,1.732"/>
		<path fill="none" stroke="#0085A6" stroke-width="6" stroke-linecap="round" stroke-linejoin="round" d="M99.325,45.835
			l-0.128-0.12c-0.682-0.052-1.522,3.833-0.75,4.538c0.367,0.308,1.336-0.135,1.748-0.75c0.314-0.518-0.037-1.71-0.495-2.078
			c-0.525-0.405-1.327-0.397-1.681,0.18c-0.997,1.785-0.037,4.132,0.346,4.215c0.428-0.097,0.922-0.952,0.84-1.575
			c-0.09-0.57-1.035-1.357-1.59-1.38c-0.6-0.007-1.725,1.688-1.628,2.13c0.466,1.92,2.431,2.46,2.513,2.362l-2.221-1.02
			c-0.307,0.638,0.338,1.8,1.08,2.055c1.014,0.345,1.193,0.555,1.148,0.667l-2.902-1.268l2.595,1.402
			c-0.713-0.285-2.476-1.545-2.61-1.71c-0.098-0.127-1.26-1.53-1.561-2.94c-0.156-0.938,0.219-1.583,1.186-2.535
			c1.027-0.99,1.582-1.23,1.703-1.238c-0.652,0.442-1.223,0.825-1.613,1.62c-0.135,0.285-0.959,1.402-0.75,2.002
			c0.03,0.075,0.375,0.63,0.69,1.163c-0.045,0.03-1.05-0.57-1.223-0.953c-0.487-1.095,0.03-2.663,0.757-3.48
			c0.826-0.908,2.566-1.927,3.338-2.167l-2.625,1.8l2.551-2.04c-0.061-0.188-0.863-0.472-1.568,0.128
			c-0.945,0.825-1.867,2.392-1.875,2.827c0.615-0.345-1.928,0.15-0.532,1.365L93.911,50.1l0.765-0.27l-0.524,1.08
			c-0.428-0.06,0.457,1.447,1.095,1.8c0.788,0.428,2.13,2.018,2.715,2.265l-0.989-0.39l1.177,0.593
			c0.045-0.315-1.402-2.873-1.747-4.47c-0.367-1.808-0.367-2.52,0.008-3.353c0.18-0.375,1.409-1.665,1.649-2.025l-0.78,0.172
			l1.32-1.065c0.24,0.112,0.397,0.195,0.465,0.24c0.075,0.037,0.15,0.104,0.24,0.202"/>
		<path fill="none" stroke="#0085A6" stroke-width="6" stroke-linecap="round" stroke-linejoin="round" d="M100.12,45.542
			c-1.08-0.757-2.393,0.48-2.415,0.593l2.01-0.863c-0.465-1.087-2.032-0.533-3.689,0.57c-0.09,0.06-2.197,2.025-2.385,2.693
			c-0.016,0.217-0.413,1.987-0.24,2.01l0.72,2.002l0.788,0.51c0.382,0.262,2.316,2.01,3.816,1.717
			c-0.209,0.015-2.699-0.495-3.51-1.05c-0.067-0.053-1.402-1.792-1.529-3.57c-0.008-0.667,1.477-1.8,1.732-1.965"/>
		<path fill="none" stroke="#0085A6" stroke-width="6" stroke-linecap="round" stroke-linejoin="round" d="M93.564,50.155
			l-0.217-0.877c0.248-0.413,0.697-1.86,2.168-3.495c0.893-0.99,2.797-1.62,3.967-1.688"/>
	</g>
</g>
<g enable-background="new    ">
	<path fill="none" stroke="#06ADF4" stroke-width="6" stroke-linecap="round" stroke-linejoin="round" d="M175.973,50.065
		c3.816-0.576,8.353-1.009,13.321-1.009c9.001,0,15.41,2.089,19.658,6.049c4.32,3.96,6.841,9.577,6.841,17.426
		c0,7.921-2.448,14.401-6.985,18.865c-4.536,4.536-12.025,6.984-21.458,6.984c-4.464,0-8.209-0.216-11.377-0.575V50.065z
		 M182.237,92.98c1.584,0.288,3.889,0.36,6.337,0.36c13.393,0,20.666-7.488,20.666-20.594c0.072-11.449-6.409-18.722-19.658-18.722
		c-3.24,0-5.688,0.288-7.345,0.648V92.98z"/>
	<path fill="none" stroke="#06ADF4" stroke-width="6" stroke-linecap="round" stroke-linejoin="round" d="M253.66,76.131v4.681
		h-17.786v-4.681H253.66z"/>
	<path fill="none" stroke="#06ADF4" stroke-width="6" stroke-linecap="round" stroke-linejoin="round" d="M282.818,49.417v48.532
		h-6.265V49.417H282.818z"/>
	<path fill="none" stroke="#06ADF4" stroke-width="6" stroke-linecap="round" stroke-linejoin="round" d="M323.498,76.131v4.681
		h-17.785v-4.681H323.498z"/>
	<path fill="none" stroke="#06ADF4" stroke-width="6" stroke-linecap="round" stroke-linejoin="round" d="M352.657,54.745h-14.761
		v-5.328h35.93v5.328h-14.832v43.204h-6.337V54.745z"/>
	<path fill="none" stroke="#06ADF4" stroke-width="6" stroke-linecap="round" stroke-linejoin="round" d="M408.961,76.131v4.681
		h-17.786v-4.681H408.961z"/>
	<path fill="none" stroke="#06ADF4" stroke-width="6" stroke-linecap="round" stroke-linejoin="round" d="M473.33,73.179
		c0,16.706-10.153,25.563-22.539,25.563c-12.816,0-21.817-9.937-21.817-24.626c0-15.409,9.577-25.49,22.538-25.49
		C464.761,48.625,473.33,58.777,473.33,73.179z M435.67,73.971c0,10.369,5.617,19.658,15.481,19.658
		c9.937,0,15.554-9.145,15.554-20.162c0-9.648-5.041-19.729-15.481-19.729C440.854,53.737,435.67,63.314,435.67,73.971z"/>
</g>
<g>
	<linearGradient id="SVGID_1_" gradientUnits="userSpaceOnUse" x1="158.3638" y1="122.9258" x2="489.1768" y2="122.9258">
		<stop  offset="0" style="stop-color:#CCE0F4"/>
		<stop  offset="0.066" style="stop-color:#C3DDF3"/>
		<stop  offset="0.1759" style="stop-color:#A9D3F2"/>
		<stop  offset="0.3161" style="stop-color:#80C4EF"/>
		<stop  offset="0.4793" style="stop-color:#47AFEC"/>
		<stop  offset="0.5674" style="stop-color:#25A3EA"/>
		<stop  offset="0.9944" style="stop-color:#0085A6"/>
	</linearGradient>
	<path fill="url(#SVGID_1_)" d="M159,135.418c0,0,1.263-0.32,3.629-0.922c2.369-0.593,5.834-1.505,10.263-2.58
		c4.432-1.066,9.779-2.488,15.999-3.792c6.208-1.342,13.198-2.977,20.876-4.472c3.842-0.735,7.845-1.501,11.987-2.294
		c4.143-0.798,8.432-1.591,12.867-2.262c4.43-0.707,8.981-1.434,13.633-2.176c1.164-0.18,2.331-0.387,3.51-0.546
		c1.181-0.149,2.369-0.299,3.562-0.45c2.387-0.299,4.796-0.601,7.226-0.904c9.706-1.329,19.802-2.187,30.054-3.104
		c5.141-0.288,10.322-0.579,15.524-0.87l3.905-0.218c1.303-0.071,2.61-0.069,3.917-0.106c2.613-0.057,5.229-0.113,7.845-0.17
		c2.616-0.04,5.232-0.08,7.846-0.12c2.614,0.012,5.227,0.096,7.832,0.141c2.606,0.054,5.207,0.107,7.801,0.161
		c1.297,0.027,2.592,0.054,3.884,0.081c1.292,0.045,2.58,0.139,3.866,0.205c5.145,0.281,10.246,0.591,15.284,0.924
		c5.023,0.498,9.985,0.99,14.867,1.475c4.887,0.423,9.656,1.149,14.328,1.807c4.667,0.691,9.251,1.241,13.663,2.096
		c4.42,0.788,8.719,1.556,12.878,2.298c2.081,0.355,4.106,0.817,6.098,1.248c1.99,0.433,3.944,0.856,5.857,1.272
		c3.822,0.849,7.5,1.586,10.967,2.424c3.457,0.88,6.735,1.714,9.816,2.498c3.078,0.789,5.958,1.527,8.622,2.21
		c2.643,0.759,5.07,1.456,7.263,2.086c4.385,1.255,7.812,2.306,10.154,2.993c2.34,0.696,3.588,1.067,3.588,1.067
		s-1.276-0.262-3.67-0.752c-2.391-0.499-5.906-1.188-10.357-2.149c-2.228-0.469-4.693-0.988-7.378-1.554
		c-2.695-0.513-5.609-1.067-8.724-1.66c-3.11-0.598-6.42-1.232-9.909-1.902c-3.496-0.629-7.184-1.222-11.022-1.878
		c-1.92-0.323-3.88-0.654-5.877-0.991c-1.997-0.335-4.027-0.7-6.111-0.956c-4.153-0.589-8.447-1.198-12.861-1.825
		c-4.401-0.7-8.967-1.091-13.612-1.62c-4.654-0.463-9.383-1.155-14.233-1.453c-4.84-0.381-9.761-0.769-14.742-1.16
		c-4.993-0.205-10.043-0.439-15.131-0.707c-1.272-0.058-2.547-0.143-3.825-0.179c-1.278-0.018-2.56-0.035-3.842-0.053
		c-2.565-0.036-5.139-0.071-7.716-0.107c-2.578-0.026-5.161-0.093-7.746-0.087c-2.586,0.055-5.174,0.109-7.763,0.165
		c-2.588,0.038-5.177,0.076-7.763,0.115c-1.293,0.028-2.586,0.017-3.876,0.078l-3.868,0.19c-5.153,0.254-10.287,0.507-15.38,0.758
		c-10.163,0.887-20.198,1.4-29.858,2.566c-2.418,0.253-4.817,0.504-7.192,0.753c-2.376,0.246-4.731,0.478-7.052,0.792
		c-4.648,0.583-9.196,1.153-13.623,1.709c-2.212,0.293-4.403,0.517-6.545,0.855c-2.146,0.317-4.258,0.63-6.336,0.937
		c-4.16,0.597-8.179,1.174-12.038,1.727c-3.868,0.511-7.533,1.224-11.048,1.752c-3.511,0.557-6.842,1.086-9.972,1.583
		c-6.266,0.96-11.713,1.964-16.208,2.714c-4.489,0.782-8.03,1.331-10.439,1.734C160.285,135.207,159,135.418,159,135.418z"/>
</g>
<g>
	<linearGradient id="SVGID_2_" gradientUnits="userSpaceOnUse" x1="183.5894" y1="123.0039" x2="463.7393" y2="123.0039">
		<stop  offset="0" style="stop-color:#CCE0F4"/>
		<stop  offset="0.066" style="stop-color:#C3DDF3"/>
		<stop  offset="0.1759" style="stop-color:#A9D3F2"/>
		<stop  offset="0.3161" style="stop-color:#80C4EF"/>
		<stop  offset="0.4793" style="stop-color:#47AFEC"/>
		<stop  offset="0.5674" style="stop-color:#25A3EA"/>
		<stop  offset="0.9944" style="stop-color:#0085A6"/>
	</linearGradient>
	<path fill="url(#SVGID_2_)" d="M184.226,133.805c0,0,1.066-0.28,3.066-0.805c2.001-0.516,4.928-1.315,8.67-2.248
		c3.746-0.927,8.263-2.162,13.522-3.291c5.249-1.166,11.159-2.582,17.655-3.872c3.25-0.637,6.636-1.299,10.14-1.984
		c3.504-0.691,7.134-1.37,10.887-1.95c3.749-0.61,7.601-1.236,11.537-1.877c1.966-0.343,3.964-0.615,5.986-0.858
		c2.021-0.257,4.06-0.517,6.117-0.777c8.216-1.138,16.765-1.89,25.447-2.668c8.707-0.481,17.548-1.103,26.418-1.171l6.646-0.099
		c2.214,0.012,4.427,0.084,6.634,0.123c2.208,0.047,4.411,0.094,6.607,0.141c1.099,0.023,2.195,0.047,3.29,0.07
		c1.094,0.039,2.185,0.119,3.274,0.177c4.357,0.238,8.679,0.506,12.945,0.798c4.254,0.43,8.456,0.854,12.59,1.272
		c4.139,0.367,8.177,0.984,12.132,1.556c3.951,0.598,7.832,1.075,11.565,1.81c3.741,0.68,7.379,1.341,10.899,1.98
		c1.761,0.309,3.474,0.707,5.158,1.079c1.685,0.373,3.337,0.739,4.955,1.099c3.233,0.732,6.345,1.368,9.276,2.093
		c2.923,0.761,5.694,1.482,8.3,2.16c2.602,0.683,5.036,1.321,7.287,1.912c2.233,0.657,4.284,1.261,6.138,1.806
		c3.705,1.085,6.598,2.001,8.576,2.598c1.977,0.605,3.03,0.928,3.03,0.928s-1.082-0.213-3.111-0.612
		c-2.027-0.407-5.009-0.964-8.78-1.754c-1.888-0.384-3.978-0.81-6.252-1.273c-2.283-0.421-4.752-0.877-7.39-1.363
		c-2.635-0.49-5.438-1.013-8.393-1.563c-2.964-0.491-6.08-1.008-9.332-1.547c-1.625-0.267-3.284-0.539-4.975-0.817
		c-1.69-0.276-3.409-0.577-5.173-0.786c-3.514-0.487-7.146-0.99-10.881-1.508c-3.725-0.581-7.586-0.899-11.516-1.335
		c-3.937-0.377-7.936-0.96-12.037-1.203c-4.092-0.313-8.253-0.634-12.465-0.957c-4.222-0.163-8.49-0.356-12.792-0.582
		c-1.076-0.048-2.153-0.119-3.233-0.148c-1.081-0.015-2.164-0.028-3.248-0.043c-2.169-0.028-4.344-0.058-6.523-0.087
		c-2.179-0.021-4.362-0.075-6.548-0.069l-6.562,0.143c-8.755-0.003-17.5,0.544-26.113,0.95c-8.593,0.747-17.08,1.155-25.251,2.13
		c-4.088,0.444-8.119,0.784-12.049,1.28c-3.933,0.48-7.781,0.951-11.527,1.41c-3.753,0.415-7.381,0.989-10.901,1.48
		c-3.521,0.489-6.924,0.963-10.19,1.417c-6.521,1.002-12.5,1.92-17.798,2.734c-5.306,0.786-9.923,1.604-13.731,2.214
		c-3.804,0.64-6.806,1.076-8.847,1.403C185.315,133.635,184.226,133.805,184.226,133.805z"/>
</g>
</svg>
